<mxfile host="Electron" agent="Mozilla/5.0 (Macintosh; Intel Mac OS X 10_15_7) AppleWebKit/537.36 (KHTML, like Gecko) draw.io/26.1.1 Chrome/132.0.6834.210 Electron/34.3.3 Safari/537.36" version="26.1.1">
  <diagram name="Страница — 1" id="AA9cZ-glA_Fp__WyKTjR">
    <mxGraphModel dx="2288" dy="1067" grid="1" gridSize="10" guides="1" tooltips="1" connect="1" arrows="1" fold="1" page="1" pageScale="1" pageWidth="827" pageHeight="1169" math="0" shadow="0">
      <root>
        <mxCell id="0" />
        <mxCell id="1" parent="0" />
        <mxCell id="nFB4tpNnGNIT1_HhN5Ei-107" value="" style="rounded=1;whiteSpace=wrap;html=1;" parent="1" vertex="1">
          <mxGeometry x="-273" y="1570" width="700" height="540" as="geometry" />
        </mxCell>
        <object placeholders="1" c4Name="Поставщик ресурсов ЖКХ" c4Type="Software System" c4Description="" label="&lt;font style=&quot;font-size: 16px&quot;&gt;&lt;b&gt;%c4Name%&lt;/b&gt;&lt;/font&gt;&lt;div&gt;[%c4Type%]&lt;/div&gt;&lt;br&gt;&lt;div&gt;&lt;font style=&quot;font-size: 11px&quot;&gt;&lt;font color=&quot;#cccccc&quot;&gt;%c4Description%&lt;/font&gt;&lt;/div&gt;" id="nFB4tpNnGNIT1_HhN5Ei-108">
          <mxCell style="rounded=1;whiteSpace=wrap;html=1;labelBackgroundColor=none;fillColor=#8C8496;fontColor=#ffffff;align=center;arcSize=10;strokeColor=#736782;metaEdit=1;resizable=0;points=[[0.25,0,0],[0.5,0,0],[0.75,0,0],[1,0.25,0],[1,0.5,0],[1,0.75,0],[0.75,1,0],[0.5,1,0],[0.25,1,0],[0,0.75,0],[0,0.5,0],[0,0.25,0]];" parent="1" vertex="1">
            <mxGeometry x="2489" y="450" width="240" height="120" as="geometry" />
          </mxCell>
        </object>
        <object placeholders="1" c4Name="Поставщик ресурсов ЖКХ" c4Type="Software System" c4Description="" label="&lt;font style=&quot;font-size: 16px&quot;&gt;&lt;b&gt;%c4Name%&lt;/b&gt;&lt;/font&gt;&lt;div&gt;[%c4Type%]&lt;/div&gt;&lt;br&gt;&lt;div&gt;&lt;font style=&quot;font-size: 11px&quot;&gt;&lt;font color=&quot;#cccccc&quot;&gt;%c4Description%&lt;/font&gt;&lt;/div&gt;" id="nFB4tpNnGNIT1_HhN5Ei-109">
          <mxCell style="rounded=1;whiteSpace=wrap;html=1;labelBackgroundColor=none;fillColor=#8C8496;fontColor=#ffffff;align=center;arcSize=10;strokeColor=#736782;metaEdit=1;resizable=0;points=[[0.25,0,0],[0.5,0,0],[0.75,0,0],[1,0.25,0],[1,0.5,0],[1,0.75,0],[0.75,1,0],[0.5,1,0],[0.25,1,0],[0,0.75,0],[0,0.5,0],[0,0.25,0]];" parent="1" vertex="1">
            <mxGeometry x="2484" y="455" width="240" height="120" as="geometry" />
          </mxCell>
        </object>
        <mxCell id="nFB4tpNnGNIT1_HhN5Ei-110" value="" style="rounded=1;whiteSpace=wrap;html=1;" parent="1" vertex="1">
          <mxGeometry x="627" y="1310" width="420" height="520" as="geometry" />
        </mxCell>
        <mxCell id="nFB4tpNnGNIT1_HhN5Ei-111" value="" style="rounded=1;whiteSpace=wrap;html=1;" parent="1" vertex="1">
          <mxGeometry x="92" y="350" width="910" height="840" as="geometry" />
        </mxCell>
        <mxCell id="nFB4tpNnGNIT1_HhN5Ei-112" value="" style="rounded=1;whiteSpace=wrap;html=1;" parent="1" vertex="1">
          <mxGeometry x="1257" y="370" width="780" height="860" as="geometry" />
        </mxCell>
        <mxCell id="nFB4tpNnGNIT1_HhN5Ei-113" style="edgeStyle=orthogonalEdgeStyle;rounded=0;orthogonalLoop=1;jettySize=auto;html=1;exitX=0.5;exitY=1;exitDx=0;exitDy=0;exitPerimeter=0;" parent="1" source="nFB4tpNnGNIT1_HhN5Ei-166" target="nFB4tpNnGNIT1_HhN5Ei-147" edge="1">
          <mxGeometry relative="1" as="geometry" />
        </mxCell>
        <mxCell id="nFB4tpNnGNIT1_HhN5Ei-114" value="[REST]" style="edgeLabel;html=1;align=center;verticalAlign=middle;resizable=0;points=[];" parent="nFB4tpNnGNIT1_HhN5Ei-113" connectable="0" vertex="1">
          <mxGeometry x="-0.087" relative="1" as="geometry">
            <mxPoint as="offset" />
          </mxGeometry>
        </mxCell>
        <object placeholders="1" c4Name="crm-db" c4Type="Container" c4Technology="MSSQL" c4Description="База данных системы CRM" label="&lt;font style=&quot;font-size: 16px&quot;&gt;&lt;b&gt;%c4Name%&lt;/b&gt;&lt;/font&gt;&lt;div&gt;[%c4Type%:&amp;nbsp;%c4Technology%]&lt;/div&gt;&lt;br&gt;&lt;div&gt;&lt;font style=&quot;font-size: 11px&quot;&gt;&lt;font color=&quot;#E6E6E6&quot;&gt;%c4Description%&lt;/font&gt;&lt;/div&gt;" id="nFB4tpNnGNIT1_HhN5Ei-115">
          <mxCell style="shape=cylinder3;size=15;whiteSpace=wrap;html=1;boundedLbl=1;rounded=0;labelBackgroundColor=none;fillColor=#23A2D9;fontSize=12;fontColor=#ffffff;align=center;strokeColor=#0E7DAD;metaEdit=1;points=[[0.5,0,0],[1,0.25,0],[1,0.5,0],[1,0.75,0],[0.5,1,0],[0,0.75,0],[0,0.5,0],[0,0.25,0]];resizable=0;" parent="1" vertex="1">
            <mxGeometry x="427" y="1040" width="240" height="120" as="geometry" />
          </mxCell>
        </object>
        <mxCell id="nFB4tpNnGNIT1_HhN5Ei-116" style="edgeStyle=orthogonalEdgeStyle;rounded=0;orthogonalLoop=1;jettySize=auto;html=1;exitX=0;exitY=0.75;exitDx=0;exitDy=0;exitPerimeter=0;entryX=0.5;entryY=0;entryDx=0;entryDy=0;entryPerimeter=0;" parent="1" source="nFB4tpNnGNIT1_HhN5Ei-118" target="nFB4tpNnGNIT1_HhN5Ei-168" edge="1">
          <mxGeometry relative="1" as="geometry">
            <Array as="points">
              <mxPoint x="-103" y="970" />
            </Array>
          </mxGeometry>
        </mxCell>
        <mxCell id="nFB4tpNnGNIT1_HhN5Ei-117" value="Аутентификация&amp;nbsp;&lt;div&gt;менеджеров&lt;/div&gt;" style="edgeLabel;html=1;align=center;verticalAlign=middle;resizable=0;points=[];" parent="nFB4tpNnGNIT1_HhN5Ei-116" connectable="0" vertex="1">
          <mxGeometry x="0.233" y="-1" relative="1" as="geometry">
            <mxPoint as="offset" />
          </mxGeometry>
        </mxCell>
        <object placeholders="1" c4Name="client-crm-app" c4Type="Container" c4Technology="e.g. SpringBoot, ElasticSearch,Container: Dynamics CRM" c4Description="Система управления клиентскими данными" label="&lt;font style=&quot;font-size: 16px&quot;&gt;&lt;b&gt;%c4Name%&lt;/b&gt;&lt;/font&gt;&lt;div&gt;[%c4Type%: %c4Technology%]&lt;/div&gt;&lt;br&gt;&lt;div&gt;&lt;font style=&quot;font-size: 11px&quot;&gt;&lt;font color=&quot;#E6E6E6&quot;&gt;%c4Description%&lt;/font&gt;&lt;/div&gt;" id="nFB4tpNnGNIT1_HhN5Ei-118">
          <mxCell style="rounded=1;whiteSpace=wrap;html=1;fontSize=11;labelBackgroundColor=none;fillColor=#23A2D9;fontColor=#ffffff;align=center;arcSize=10;strokeColor=#0E7DAD;metaEdit=1;resizable=0;points=[[0.25,0,0],[0.5,0,0],[0.75,0,0],[1,0.25,0],[1,0.5,0],[1,0.75,0],[0.75,1,0],[0.5,1,0],[0.25,1,0],[0,0.75,0],[0,0.5,0],[0,0.25,0]];" parent="1" vertex="1">
            <mxGeometry x="427" y="880" width="240" height="120" as="geometry" />
          </mxCell>
        </object>
        <mxCell id="nFB4tpNnGNIT1_HhN5Ei-119" style="edgeStyle=orthogonalEdgeStyle;rounded=0;orthogonalLoop=1;jettySize=auto;html=1;exitX=0;exitY=0.75;exitDx=0;exitDy=0;exitPerimeter=0;" parent="1" source="nFB4tpNnGNIT1_HhN5Ei-121" target="nFB4tpNnGNIT1_HhN5Ei-168" edge="1">
          <mxGeometry relative="1" as="geometry">
            <Array as="points">
              <mxPoint x="1597" y="770" />
              <mxPoint x="1597" y="960" />
              <mxPoint x="1267" y="960" />
              <mxPoint x="1267" y="1180" />
              <mxPoint x="-103" y="1180" />
            </Array>
          </mxGeometry>
        </mxCell>
        <mxCell id="nFB4tpNnGNIT1_HhN5Ei-120" value="Аутентификация&amp;nbsp;&lt;div&gt;менеджеров&lt;/div&gt;" style="edgeLabel;html=1;align=center;verticalAlign=middle;resizable=0;points=[];" parent="nFB4tpNnGNIT1_HhN5Ei-119" connectable="0" vertex="1">
          <mxGeometry x="0.3218" y="6" relative="1" as="geometry">
            <mxPoint as="offset" />
          </mxGeometry>
        </mxCell>
        <object placeholders="1" c4Name="CRM" c4Type="Container" c4Technology="Container: Kotlin, Spring Boot" c4Description="Система управления данными собственников" label="&lt;font style=&quot;font-size: 16px&quot;&gt;&lt;b&gt;%c4Name%&lt;/b&gt;&lt;/font&gt;&lt;div&gt;[%c4Type%: %c4Technology%]&lt;/div&gt;&lt;br&gt;&lt;div&gt;&lt;font style=&quot;font-size: 11px&quot;&gt;&lt;font color=&quot;#E6E6E6&quot;&gt;%c4Description%&lt;/font&gt;&lt;/div&gt;" id="nFB4tpNnGNIT1_HhN5Ei-121">
          <mxCell style="rounded=1;whiteSpace=wrap;html=1;fontSize=11;labelBackgroundColor=none;fillColor=#23A2D9;fontColor=#ffffff;align=center;arcSize=10;strokeColor=#0E7DAD;metaEdit=1;resizable=0;points=[[0.25,0,0],[0.5,0,0],[0.75,0,0],[1,0.25,0],[1,0.5,0],[1,0.75,0],[0.75,1,0],[0.5,1,0],[0.25,1,0],[0,0.75,0],[0,0.5,0],[0,0.25,0]];" parent="1" vertex="1">
            <mxGeometry x="1707" y="680" width="240" height="120" as="geometry" />
          </mxCell>
        </object>
        <object placeholders="1" c4Name="crm-tenant-db" c4Type="Container" c4Technology="PostgreSQL" c4Description="База данных CRM по собственникам" label="&lt;font style=&quot;font-size: 16px&quot;&gt;&lt;b&gt;%c4Name%&lt;/b&gt;&lt;/font&gt;&lt;div&gt;[%c4Type%:&amp;nbsp;%c4Technology%]&lt;/div&gt;&lt;br&gt;&lt;div&gt;&lt;font style=&quot;font-size: 11px&quot;&gt;&lt;font color=&quot;#E6E6E6&quot;&gt;%c4Description%&lt;/font&gt;&lt;/div&gt;" id="nFB4tpNnGNIT1_HhN5Ei-122">
          <mxCell style="shape=cylinder3;size=15;whiteSpace=wrap;html=1;boundedLbl=1;rounded=0;labelBackgroundColor=none;fillColor=#23A2D9;fontSize=12;fontColor=#ffffff;align=center;strokeColor=#0E7DAD;metaEdit=1;points=[[0.5,0,0],[1,0.25,0],[1,0.5,0],[1,0.75,0],[0.5,1,0],[0,0.75,0],[0,0.5,0],[0,0.25,0]];resizable=0;" parent="1" vertex="1">
            <mxGeometry x="1706" y="860" width="240" height="120" as="geometry" />
          </mxCell>
        </object>
        <mxCell id="nFB4tpNnGNIT1_HhN5Ei-123" style="edgeStyle=orthogonalEdgeStyle;rounded=0;orthogonalLoop=1;jettySize=auto;html=1;entryX=0.5;entryY=0;entryDx=0;entryDy=0;entryPerimeter=0;" parent="1" source="nFB4tpNnGNIT1_HhN5Ei-118" target="nFB4tpNnGNIT1_HhN5Ei-115" edge="1">
          <mxGeometry relative="1" as="geometry" />
        </mxCell>
        <mxCell id="nFB4tpNnGNIT1_HhN5Ei-124" value="[JDBC]" style="edgeLabel;html=1;align=center;verticalAlign=middle;resizable=0;points=[];" parent="nFB4tpNnGNIT1_HhN5Ei-123" connectable="0" vertex="1">
          <mxGeometry x="-0.2713" relative="1" as="geometry">
            <mxPoint as="offset" />
          </mxGeometry>
        </mxCell>
        <mxCell id="nFB4tpNnGNIT1_HhN5Ei-125" style="edgeStyle=orthogonalEdgeStyle;rounded=0;orthogonalLoop=1;jettySize=auto;html=1;entryX=0.5;entryY=0;entryDx=0;entryDy=0;entryPerimeter=0;" parent="1" source="nFB4tpNnGNIT1_HhN5Ei-121" target="nFB4tpNnGNIT1_HhN5Ei-122" edge="1">
          <mxGeometry relative="1" as="geometry" />
        </mxCell>
        <mxCell id="nFB4tpNnGNIT1_HhN5Ei-126" value="&lt;div&gt;[JDBC]&lt;/div&gt;" style="edgeLabel;html=1;align=center;verticalAlign=middle;resizable=0;points=[];" parent="nFB4tpNnGNIT1_HhN5Ei-125" connectable="0" vertex="1">
          <mxGeometry x="-0.0327" y="1" relative="1" as="geometry">
            <mxPoint as="offset" />
          </mxGeometry>
        </mxCell>
        <mxCell id="nFB4tpNnGNIT1_HhN5Ei-127" style="edgeStyle=orthogonalEdgeStyle;rounded=0;orthogonalLoop=1;jettySize=auto;html=1;entryX=0;entryY=0.25;entryDx=0;entryDy=0;entryPerimeter=0;exitX=0.366;exitY=0.981;exitDx=0;exitDy=0;exitPerimeter=0;" parent="1" source="nFB4tpNnGNIT1_HhN5Ei-166" target="nFB4tpNnGNIT1_HhN5Ei-118" edge="1">
          <mxGeometry relative="1" as="geometry">
            <Array as="points">
              <mxPoint x="515" y="540" />
              <mxPoint x="397" y="540" />
              <mxPoint x="397" y="910" />
            </Array>
            <mxPoint x="397" y="650" as="sourcePoint" />
            <mxPoint x="397" y="950" as="targetPoint" />
          </mxGeometry>
        </mxCell>
        <mxCell id="nFB4tpNnGNIT1_HhN5Ei-128" value="&lt;div&gt;Регистрация клиента&lt;/div&gt;Карточка клиента&lt;div&gt;Профиль клиента&lt;/div&gt;&lt;div&gt;[REST]&lt;/div&gt;" style="edgeLabel;html=1;align=center;verticalAlign=middle;resizable=0;points=[];" parent="nFB4tpNnGNIT1_HhN5Ei-127" connectable="0" vertex="1">
          <mxGeometry x="0.5831" y="1" relative="1" as="geometry">
            <mxPoint x="9" y="28" as="offset" />
          </mxGeometry>
        </mxCell>
        <mxCell id="nFB4tpNnGNIT1_HhN5Ei-129" style="edgeStyle=orthogonalEdgeStyle;rounded=0;orthogonalLoop=1;jettySize=auto;html=1;exitX=0.5;exitY=1;exitDx=0;exitDy=0;exitPerimeter=0;" parent="1" source="nFB4tpNnGNIT1_HhN5Ei-181" target="nFB4tpNnGNIT1_HhN5Ei-132" edge="1">
          <mxGeometry relative="1" as="geometry">
            <mxPoint x="1236.9200000000005" y="489.9999999999998" as="sourcePoint" />
          </mxGeometry>
        </mxCell>
        <mxCell id="nFB4tpNnGNIT1_HhN5Ei-130" value="[REST, WS]" style="edgeLabel;html=1;align=center;verticalAlign=middle;resizable=0;points=[];" parent="nFB4tpNnGNIT1_HhN5Ei-129" connectable="0" vertex="1">
          <mxGeometry x="-0.2095" y="1" relative="1" as="geometry">
            <mxPoint as="offset" />
          </mxGeometry>
        </mxCell>
        <mxCell id="nFB4tpNnGNIT1_HhN5Ei-131" style="edgeStyle=orthogonalEdgeStyle;rounded=0;orthogonalLoop=1;jettySize=auto;html=1;fillColor=#f8cecc;strokeColor=#b85450;strokeWidth=2;" parent="1" source="nFB4tpNnGNIT1_HhN5Ei-132" target="nFB4tpNnGNIT1_HhN5Ei-203" edge="1">
          <mxGeometry relative="1" as="geometry">
            <Array as="points">
              <mxPoint x="2097" y="640" />
              <mxPoint x="2097" y="535" />
            </Array>
          </mxGeometry>
        </mxCell>
        <mxCell id="f541CvpvuusSGl8fDKQ8-1" style="edgeStyle=orthogonalEdgeStyle;rounded=0;orthogonalLoop=1;jettySize=auto;html=1;entryX=0;entryY=0.5;entryDx=0;entryDy=0;fillColor=#d5e8d4;strokeColor=#82b366;endSize=5;startSize=20;jumpSize=2;strokeWidth=3;entryPerimeter=0;" parent="1" source="nFB4tpNnGNIT1_HhN5Ei-132" target="kIscD1tAKLr0vjfSmmDm-2" edge="1">
          <mxGeometry relative="1" as="geometry">
            <Array as="points">
              <mxPoint x="1980" y="640" />
              <mxPoint x="1980" y="1024" />
            </Array>
          </mxGeometry>
        </mxCell>
        <object placeholders="1" c4Name="tenant-core-app" c4Type="Container" c4Technology="Container: Kotlin, SpringBoot" c4Description="Приложение для предоставления услуг собственникам" label="&lt;font style=&quot;font-size: 16px&quot;&gt;&lt;b&gt;%c4Name%&lt;/b&gt;&lt;/font&gt;&lt;div&gt;[%c4Type%: %c4Technology%]&lt;/div&gt;&lt;br&gt;&lt;div&gt;&lt;font style=&quot;font-size: 11px&quot;&gt;&lt;font color=&quot;#E6E6E6&quot;&gt;%c4Description%&lt;/font&gt;&lt;/div&gt;" id="nFB4tpNnGNIT1_HhN5Ei-132">
          <mxCell style="rounded=1;whiteSpace=wrap;html=1;fontSize=11;labelBackgroundColor=none;fillColor=#23A2D9;fontColor=#ffffff;align=center;arcSize=10;strokeColor=#0E7DAD;metaEdit=1;resizable=0;points=[[0.25,0,0],[0.5,0,0],[0.75,0,0],[1,0.25,0],[1,0.5,0],[1,0.75,0],[0.75,1,0],[0.5,1,0],[0.25,1,0],[0,0.75,0],[0,0.5,0],[0,0.25,0]];" parent="1" vertex="1">
            <mxGeometry x="1267" y="580" width="240" height="120" as="geometry" />
          </mxCell>
        </object>
        <object placeholders="1" c4Name="Поставщик ресурсов ЖКХ" c4Type="Software System" c4Description="." label="&lt;font style=&quot;font-size: 16px&quot;&gt;&lt;b&gt;%c4Name%&lt;/b&gt;&lt;/font&gt;&lt;div&gt;[%c4Type%]&lt;/div&gt;&lt;br&gt;&lt;div&gt;&lt;font style=&quot;font-size: 11px&quot;&gt;&lt;font color=&quot;#cccccc&quot;&gt;%c4Description%&lt;/font&gt;&lt;/div&gt;" id="nFB4tpNnGNIT1_HhN5Ei-133">
          <mxCell style="rounded=1;whiteSpace=wrap;html=1;labelBackgroundColor=none;fillColor=#8C8496;fontColor=#ffffff;align=center;arcSize=10;strokeColor=#736782;metaEdit=1;resizable=0;points=[[0.25,0,0],[0.5,0,0],[0.75,0,0],[1,0.25,0],[1,0.5,0],[1,0.75,0],[0.75,1,0],[0.5,1,0],[0.25,1,0],[0,0.75,0],[0,0.5,0],[0,0.25,0]];" parent="1" vertex="1">
            <mxGeometry x="2474" y="465" width="240" height="120" as="geometry" />
          </mxCell>
        </object>
        <object placeholders="1" c4Name="Платёжная система" c4Type="Software System" c4Description="Провайдер онлайн-платежей" label="&lt;font style=&quot;font-size: 16px&quot;&gt;&lt;b&gt;%c4Name%&lt;/b&gt;&lt;/font&gt;&lt;div&gt;[%c4Type%]&lt;/div&gt;&lt;br&gt;&lt;div&gt;&lt;font style=&quot;font-size: 11px&quot;&gt;&lt;font color=&quot;#cccccc&quot;&gt;%c4Description%&lt;/font&gt;&lt;/div&gt;" id="nFB4tpNnGNIT1_HhN5Ei-134">
          <mxCell style="rounded=1;whiteSpace=wrap;html=1;labelBackgroundColor=none;fillColor=#8C8496;fontColor=#ffffff;align=center;arcSize=10;strokeColor=#736782;metaEdit=1;resizable=0;points=[[0.25,0,0],[0.5,0,0],[0.75,0,0],[1,0.25,0],[1,0.5,0],[1,0.75,0],[0.75,1,0],[0.5,1,0],[0.25,1,0],[0,0.75,0],[0,0.5,0],[0,0.25,0]];" parent="1" vertex="1">
            <mxGeometry x="2464" y="620" width="240" height="120" as="geometry" />
          </mxCell>
        </object>
        <mxCell id="nFB4tpNnGNIT1_HhN5Ei-135" style="edgeStyle=orthogonalEdgeStyle;rounded=0;orthogonalLoop=1;jettySize=auto;html=1;entryX=0;entryY=0.5;entryDx=0;entryDy=0;entryPerimeter=0;exitX=1;exitY=0.5;exitDx=0;exitDy=0;exitPerimeter=0;fillColor=#f8cecc;strokeColor=#b85450;strokeWidth=2;" parent="1" source="nFB4tpNnGNIT1_HhN5Ei-132" target="nFB4tpNnGNIT1_HhN5Ei-134" edge="1">
          <mxGeometry relative="1" as="geometry">
            <Array as="points">
              <mxPoint x="2097" y="640" />
              <mxPoint x="2097" y="680" />
            </Array>
            <mxPoint x="1177" y="624.9999999999998" as="sourcePoint" />
            <mxPoint x="1817" y="664.9999999999998" as="targetPoint" />
          </mxGeometry>
        </mxCell>
        <mxCell id="nFB4tpNnGNIT1_HhN5Ei-136" style="edgeStyle=orthogonalEdgeStyle;rounded=0;orthogonalLoop=1;jettySize=auto;html=1;exitX=1;exitY=0.5;exitDx=0;exitDy=0;exitPerimeter=0;" parent="1" source="nFB4tpNnGNIT1_HhN5Ei-132" edge="1">
          <mxGeometry relative="1" as="geometry">
            <Array as="points">
              <mxPoint x="1597" y="640" />
              <mxPoint x="1597" y="770" />
            </Array>
            <mxPoint x="1707" y="770" as="targetPoint" />
          </mxGeometry>
        </mxCell>
        <mxCell id="nFB4tpNnGNIT1_HhN5Ei-137" value="Получение клиентских данных&lt;div&gt;[REST]&lt;/div&gt;" style="edgeLabel;html=1;align=center;verticalAlign=middle;resizable=0;points=[];" parent="nFB4tpNnGNIT1_HhN5Ei-136" connectable="0" vertex="1">
          <mxGeometry x="-0.3216" y="2" relative="1" as="geometry">
            <mxPoint x="13" y="48" as="offset" />
          </mxGeometry>
        </mxCell>
        <object placeholders="1" c4Name="tenant-core-db" c4Type="Container" c4Technology="PostgreSQL" c4Description="База данных услуг ЖКХ по собственникам" label="&lt;font style=&quot;font-size: 16px&quot;&gt;&lt;b&gt;%c4Name%&lt;/b&gt;&lt;/font&gt;&lt;div&gt;[%c4Type%:&amp;nbsp;%c4Technology%]&lt;/div&gt;&lt;br&gt;&lt;div&gt;&lt;font style=&quot;font-size: 11px&quot;&gt;&lt;font color=&quot;#E6E6E6&quot;&gt;%c4Description%&lt;/font&gt;&lt;/div&gt;" id="nFB4tpNnGNIT1_HhN5Ei-138">
          <mxCell style="shape=cylinder3;size=15;whiteSpace=wrap;html=1;boundedLbl=1;rounded=0;labelBackgroundColor=none;fillColor=#23A2D9;fontSize=12;fontColor=#ffffff;align=center;strokeColor=#0E7DAD;metaEdit=1;points=[[0.5,0,0],[1,0.25,0],[1,0.5,0],[1,0.75,0],[0.5,1,0],[0,0.75,0],[0,0.5,0],[0,0.25,0]];resizable=0;" parent="1" vertex="1">
            <mxGeometry x="1267" y="740" width="240" height="120" as="geometry" />
          </mxCell>
        </object>
        <mxCell id="nFB4tpNnGNIT1_HhN5Ei-139" style="edgeStyle=orthogonalEdgeStyle;rounded=0;orthogonalLoop=1;jettySize=auto;html=1;entryX=0.5;entryY=0;entryDx=0;entryDy=0;entryPerimeter=0;" parent="1" source="nFB4tpNnGNIT1_HhN5Ei-132" target="nFB4tpNnGNIT1_HhN5Ei-138" edge="1">
          <mxGeometry relative="1" as="geometry" />
        </mxCell>
        <mxCell id="nFB4tpNnGNIT1_HhN5Ei-140" value="[JDBC]" style="edgeLabel;html=1;align=center;verticalAlign=middle;resizable=0;points=[];" parent="nFB4tpNnGNIT1_HhN5Ei-139" connectable="0" vertex="1">
          <mxGeometry x="-0.3556" y="-2" relative="1" as="geometry">
            <mxPoint as="offset" />
          </mxGeometry>
        </mxCell>
        <object placeholders="1" c4Name="Хранилище данных" c4Type="Container" c4Technology="Greenplum" c4Description="Единое хранилище данных для всех систем компании" label="&lt;font style=&quot;font-size: 16px&quot;&gt;&lt;b&gt;%c4Name%&lt;/b&gt;&lt;/font&gt;&lt;div&gt;[%c4Type%: %c4Technology%]&lt;/div&gt;&lt;br&gt;&lt;div&gt;&lt;font style=&quot;font-size: 11px&quot;&gt;&lt;font color=&quot;#E6E6E6&quot;&gt;%c4Description%&lt;/font&gt;&lt;/div&gt;" id="nFB4tpNnGNIT1_HhN5Ei-141">
          <mxCell style="rounded=1;whiteSpace=wrap;html=1;fontSize=11;labelBackgroundColor=none;fillColor=#23A2D9;fontColor=#ffffff;align=center;arcSize=10;strokeColor=#0E7DAD;metaEdit=1;resizable=0;points=[[0.25,0,0],[0.5,0,0],[0.75,0,0],[1,0.25,0],[1,0.5,0],[1,0.75,0],[0.75,1,0],[0.5,1,0],[0.25,1,0],[0,0.75,0],[0,0.5,0],[0,0.25,0]];" parent="1" vertex="1">
            <mxGeometry x="702" y="1380" width="240" height="120" as="geometry" />
          </mxCell>
        </object>
        <object placeholders="1" c4Name="DWH Хранилище" c4Type="Container" c4Technology="S3" c4Description="Физическое хранилище данных DWH" label="&lt;font style=&quot;font-size: 16px&quot;&gt;&lt;b&gt;%c4Name%&lt;/b&gt;&lt;/font&gt;&lt;div&gt;[%c4Type%:&amp;nbsp;%c4Technology%]&lt;/div&gt;&lt;br&gt;&lt;div&gt;&lt;font style=&quot;font-size: 11px&quot;&gt;&lt;font color=&quot;#E6E6E6&quot;&gt;%c4Description%&lt;/font&gt;&lt;/div&gt;" id="nFB4tpNnGNIT1_HhN5Ei-142">
          <mxCell style="shape=cylinder3;size=15;whiteSpace=wrap;html=1;boundedLbl=1;rounded=0;labelBackgroundColor=none;fillColor=#23A2D9;fontSize=12;fontColor=#ffffff;align=center;strokeColor=#0E7DAD;metaEdit=1;points=[[0.5,0,0],[1,0.25,0],[1,0.5,0],[1,0.75,0],[0.5,1,0],[0,0.75,0],[0,0.5,0],[0,0.25,0]];resizable=0;" parent="1" vertex="1">
            <mxGeometry x="702" y="1610" width="240" height="120" as="geometry" />
          </mxCell>
        </object>
        <mxCell id="nFB4tpNnGNIT1_HhN5Ei-143" style="edgeStyle=orthogonalEdgeStyle;rounded=0;orthogonalLoop=1;jettySize=auto;html=1;exitX=0.25;exitY=1;exitDx=0;exitDy=0;exitPerimeter=0;entryX=0.5;entryY=0;entryDx=0;entryDy=0;entryPerimeter=0;" parent="1" source="nFB4tpNnGNIT1_HhN5Ei-166" target="nFB4tpNnGNIT1_HhN5Ei-149" edge="1">
          <mxGeometry relative="1" as="geometry">
            <Array as="points">
              <mxPoint x="487" y="510" />
              <mxPoint x="227" y="510" />
            </Array>
          </mxGeometry>
        </mxCell>
        <mxCell id="nFB4tpNnGNIT1_HhN5Ei-144" value="Получить данные по объектам&lt;div&gt;недвижимости&lt;/div&gt;&lt;div&gt;[REST]&lt;/div&gt;" style="edgeLabel;html=1;align=center;verticalAlign=middle;resizable=0;points=[];" parent="nFB4tpNnGNIT1_HhN5Ei-143" connectable="0" vertex="1">
          <mxGeometry x="-0.2933" y="2" relative="1" as="geometry">
            <mxPoint x="-70" y="-2" as="offset" />
          </mxGeometry>
        </mxCell>
        <mxCell id="nFB4tpNnGNIT1_HhN5Ei-145" style="edgeStyle=orthogonalEdgeStyle;rounded=0;orthogonalLoop=1;jettySize=auto;html=1;" parent="1" source="nFB4tpNnGNIT1_HhN5Ei-147" target="nFB4tpNnGNIT1_HhN5Ei-148" edge="1">
          <mxGeometry relative="1" as="geometry" />
        </mxCell>
        <mxCell id="nFB4tpNnGNIT1_HhN5Ei-146" value="[JDBC]" style="edgeLabel;html=1;align=center;verticalAlign=middle;resizable=0;points=[];" parent="nFB4tpNnGNIT1_HhN5Ei-145" connectable="0" vertex="1">
          <mxGeometry x="0.2629" y="4" relative="1" as="geometry">
            <mxPoint as="offset" />
          </mxGeometry>
        </mxCell>
        <object placeholders="1" c4Name="client-mart-app" c4Type="Container" c4Technology="Container: Kotlin, SpringBoot" c4Description="Приложение для:&#xa;- предоставления информации об объектах недвижимости,&#xa;- проведения онлайн-сделок" label="&lt;font style=&quot;font-size: 16px&quot;&gt;&lt;b&gt;%c4Name%&lt;/b&gt;&lt;/font&gt;&lt;div&gt;[%c4Type%: %c4Technology%]&lt;/div&gt;&lt;br&gt;&lt;div&gt;&lt;font style=&quot;font-size: 11px&quot;&gt;&lt;font color=&quot;#E6E6E6&quot;&gt;%c4Description%&lt;/font&gt;&lt;/div&gt;" id="nFB4tpNnGNIT1_HhN5Ei-147">
          <mxCell style="rounded=1;whiteSpace=wrap;html=1;fontSize=11;labelBackgroundColor=none;fillColor=#23A2D9;fontColor=#ffffff;align=center;arcSize=10;strokeColor=#0E7DAD;metaEdit=1;resizable=0;points=[[0.25,0,0],[0.5,0,0],[0.75,0,0],[1,0.25,0],[1,0.5,0],[1,0.75,0],[0.75,1,0],[0.5,1,0],[0.25,1,0],[0,0.75,0],[0,0.5,0],[0,0.25,0]];" parent="1" vertex="1">
            <mxGeometry x="427" y="550" width="240" height="120" as="geometry" />
          </mxCell>
        </object>
        <object placeholders="1" c4Name="client-mart-db" c4Type="Container" c4Technology="PostgreSQL" c4Description="База данных для хранения информации об объектах недвижимости и сделкам по ним" label="&lt;font style=&quot;font-size: 14px&quot;&gt;&lt;b&gt;%c4Name%&lt;/b&gt;&lt;/font&gt;&lt;div&gt;[%c4Type%:&amp;nbsp;%c4Technology%]&lt;/div&gt;&lt;br&gt;&lt;div&gt;&lt;font style=&quot;font-size: 11px&quot;&gt;&lt;font color=&quot;#E6E6E6&quot;&gt;%c4Description%&lt;/font&gt;&lt;/div&gt;" id="nFB4tpNnGNIT1_HhN5Ei-148">
          <mxCell style="shape=cylinder3;size=15;whiteSpace=wrap;html=1;boundedLbl=1;rounded=0;labelBackgroundColor=none;fillColor=#23A2D9;fontSize=12;fontColor=#ffffff;align=center;strokeColor=#0E7DAD;metaEdit=1;points=[[0.5,0,0],[1,0.25,0],[1,0.5,0],[1,0.75,0],[0.5,1,0],[0,0.75,0],[0,0.5,0],[0,0.25,0]];resizable=0;" parent="1" vertex="1">
            <mxGeometry x="427" y="700" width="240" height="120" as="geometry" />
          </mxCell>
        </object>
        <object placeholders="1" c4Name="client-mart-estate-app" c4Type="Container" c4Technology="Container: Kotlin, SpringBoot" c4Description="Приложение для управления информацией об объектах недвижимости" label="&lt;font style=&quot;font-size: 16px&quot;&gt;&lt;b&gt;%c4Name%&lt;/b&gt;&lt;/font&gt;&lt;div&gt;[%c4Type%: %c4Technology%]&lt;/div&gt;&lt;br&gt;&lt;div&gt;&lt;font style=&quot;font-size: 11px&quot;&gt;&lt;font color=&quot;#E6E6E6&quot;&gt;%c4Description%&lt;/font&gt;&lt;/div&gt;" id="nFB4tpNnGNIT1_HhN5Ei-149">
          <mxCell style="rounded=1;whiteSpace=wrap;html=1;fontSize=11;labelBackgroundColor=none;fillColor=#23A2D9;fontColor=#ffffff;align=center;arcSize=10;strokeColor=#0E7DAD;metaEdit=1;resizable=0;points=[[0.25,0,0],[0.5,0,0],[0.75,0,0],[1,0.25,0],[1,0.5,0],[1,0.75,0],[0.75,1,0],[0.5,1,0],[0.25,1,0],[0,0.75,0],[0,0.5,0],[0,0.25,0]];" parent="1" vertex="1">
            <mxGeometry x="107" y="550" width="240" height="120" as="geometry" />
          </mxCell>
        </object>
        <mxCell id="nFB4tpNnGNIT1_HhN5Ei-150" style="edgeStyle=orthogonalEdgeStyle;rounded=0;orthogonalLoop=1;jettySize=auto;html=1;entryX=0;entryY=0.75;entryDx=0;entryDy=0;entryPerimeter=0;exitX=0.5;exitY=1;exitDx=0;exitDy=0;exitPerimeter=0;" parent="1" source="nFB4tpNnGNIT1_HhN5Ei-152" target="nFB4tpNnGNIT1_HhN5Ei-141" edge="1">
          <mxGeometry relative="1" as="geometry">
            <Array as="points">
              <mxPoint x="227" y="1470" />
            </Array>
          </mxGeometry>
        </mxCell>
        <mxCell id="nFB4tpNnGNIT1_HhN5Ei-151" value="&lt;div&gt;Передача сырых данных&lt;/div&gt;[CDC]" style="edgeLabel;html=1;align=center;verticalAlign=middle;resizable=0;points=[];" parent="nFB4tpNnGNIT1_HhN5Ei-150" connectable="0" vertex="1">
          <mxGeometry x="-0.6156" y="2" relative="1" as="geometry">
            <mxPoint y="-49" as="offset" />
          </mxGeometry>
        </mxCell>
        <object placeholders="1" c4Name="client-mart-estate-db" c4Type="Container" c4Technology="PostgreSQL" c4Description="База данных объектов недвижимости" label="&lt;font style=&quot;font-size: 16px&quot;&gt;&lt;b&gt;%c4Name%&lt;/b&gt;&lt;/font&gt;&lt;div&gt;[%c4Type%:&amp;nbsp;%c4Technology%]&lt;/div&gt;&lt;br&gt;&lt;div&gt;&lt;font style=&quot;font-size: 11px&quot;&gt;&lt;font color=&quot;#E6E6E6&quot;&gt;%c4Description%&lt;/font&gt;&lt;/div&gt;" id="nFB4tpNnGNIT1_HhN5Ei-152">
          <mxCell style="shape=cylinder3;size=15;whiteSpace=wrap;html=1;boundedLbl=1;rounded=0;labelBackgroundColor=none;fillColor=#23A2D9;fontSize=12;fontColor=#ffffff;align=center;strokeColor=#0E7DAD;metaEdit=1;points=[[0.5,0,0],[1,0.25,0],[1,0.5,0],[1,0.75,0],[0.5,1,0],[0,0.75,0],[0,0.5,0],[0,0.25,0]];resizable=0;" parent="1" vertex="1">
            <mxGeometry x="107" y="750" width="240" height="120" as="geometry" />
          </mxCell>
        </object>
        <mxCell id="nFB4tpNnGNIT1_HhN5Ei-153" style="edgeStyle=orthogonalEdgeStyle;rounded=0;orthogonalLoop=1;jettySize=auto;html=1;entryX=0.5;entryY=0;entryDx=0;entryDy=0;entryPerimeter=0;" parent="1" source="nFB4tpNnGNIT1_HhN5Ei-149" target="nFB4tpNnGNIT1_HhN5Ei-152" edge="1">
          <mxGeometry relative="1" as="geometry" />
        </mxCell>
        <mxCell id="nFB4tpNnGNIT1_HhN5Ei-154" value="[JDBC]" style="edgeLabel;html=1;align=center;verticalAlign=middle;resizable=0;points=[];" parent="nFB4tpNnGNIT1_HhN5Ei-153" connectable="0" vertex="1">
          <mxGeometry x="-0.3867" y="1" relative="1" as="geometry">
            <mxPoint as="offset" />
          </mxGeometry>
        </mxCell>
        <mxCell id="nFB4tpNnGNIT1_HhN5Ei-155" style="edgeStyle=orthogonalEdgeStyle;rounded=0;orthogonalLoop=1;jettySize=auto;html=1;entryX=0;entryY=0.75;entryDx=0;entryDy=0;entryPerimeter=0;exitX=0.5;exitY=1;exitDx=0;exitDy=0;exitPerimeter=0;" parent="1" source="nFB4tpNnGNIT1_HhN5Ei-115" target="nFB4tpNnGNIT1_HhN5Ei-141" edge="1">
          <mxGeometry relative="1" as="geometry">
            <Array as="points">
              <mxPoint x="547" y="1470" />
            </Array>
          </mxGeometry>
        </mxCell>
        <mxCell id="nFB4tpNnGNIT1_HhN5Ei-156" value="&lt;div&gt;Передача сырых данных&lt;/div&gt;[CDC]" style="edgeLabel;html=1;align=center;verticalAlign=middle;resizable=0;points=[];" parent="nFB4tpNnGNIT1_HhN5Ei-155" connectable="0" vertex="1">
          <mxGeometry x="-0.4022" y="-8" relative="1" as="geometry">
            <mxPoint y="1" as="offset" />
          </mxGeometry>
        </mxCell>
        <mxCell id="nFB4tpNnGNIT1_HhN5Ei-157" style="edgeStyle=orthogonalEdgeStyle;rounded=0;orthogonalLoop=1;jettySize=auto;html=1;entryX=0;entryY=0.5;entryDx=0;entryDy=0;entryPerimeter=0;exitX=1;exitY=0.5;exitDx=0;exitDy=0;exitPerimeter=0;" parent="1" source="nFB4tpNnGNIT1_HhN5Ei-148" target="nFB4tpNnGNIT1_HhN5Ei-141" edge="1">
          <mxGeometry relative="1" as="geometry">
            <mxPoint x="647" y="830" as="sourcePoint" />
            <mxPoint x="802" y="1470" as="targetPoint" />
            <Array as="points">
              <mxPoint x="687" y="760" />
              <mxPoint x="687" y="1440" />
            </Array>
          </mxGeometry>
        </mxCell>
        <mxCell id="nFB4tpNnGNIT1_HhN5Ei-158" value="&lt;div&gt;Передача сырых данных&lt;/div&gt;[CDC]" style="edgeLabel;html=1;align=center;verticalAlign=middle;resizable=0;points=[];" parent="nFB4tpNnGNIT1_HhN5Ei-157" connectable="0" vertex="1">
          <mxGeometry x="0.4614" y="4" relative="1" as="geometry">
            <mxPoint x="-54" y="-422" as="offset" />
          </mxGeometry>
        </mxCell>
        <mxCell id="nFB4tpNnGNIT1_HhN5Ei-159" style="edgeStyle=orthogonalEdgeStyle;rounded=0;orthogonalLoop=1;jettySize=auto;html=1;exitX=0.5;exitY=1;exitDx=0;exitDy=0;exitPerimeter=0;" parent="1" source="nFB4tpNnGNIT1_HhN5Ei-138" edge="1">
          <mxGeometry relative="1" as="geometry">
            <Array as="points">
              <mxPoint x="1387" y="910" />
              <mxPoint x="1207" y="910" />
              <mxPoint x="1207" y="1420" />
            </Array>
            <mxPoint x="942" y="1420" as="targetPoint" />
          </mxGeometry>
        </mxCell>
        <mxCell id="nFB4tpNnGNIT1_HhN5Ei-160" value="&lt;div&gt;Передача сырых данных&lt;/div&gt;[CDC]" style="edgeLabel;html=1;align=center;verticalAlign=middle;resizable=0;points=[];" parent="nFB4tpNnGNIT1_HhN5Ei-159" connectable="0" vertex="1">
          <mxGeometry x="0.1919" y="-2" relative="1" as="geometry">
            <mxPoint y="-1" as="offset" />
          </mxGeometry>
        </mxCell>
        <mxCell id="nFB4tpNnGNIT1_HhN5Ei-161" style="edgeStyle=orthogonalEdgeStyle;rounded=0;orthogonalLoop=1;jettySize=auto;html=1;entryX=1;entryY=0.5;entryDx=0;entryDy=0;entryPerimeter=0;" parent="1" source="nFB4tpNnGNIT1_HhN5Ei-122" target="nFB4tpNnGNIT1_HhN5Ei-141" edge="1">
          <mxGeometry relative="1" as="geometry">
            <Array as="points">
              <mxPoint x="1827" y="1020" />
              <mxPoint x="1324" y="1020" />
              <mxPoint x="1324" y="1440" />
            </Array>
          </mxGeometry>
        </mxCell>
        <mxCell id="nFB4tpNnGNIT1_HhN5Ei-162" value="&lt;div&gt;Передача сырых данных&lt;/div&gt;[CDC]" style="edgeLabel;html=1;align=center;verticalAlign=middle;resizable=0;points=[];" parent="nFB4tpNnGNIT1_HhN5Ei-161" connectable="0" vertex="1">
          <mxGeometry x="-0.3918" y="-2" relative="1" as="geometry">
            <mxPoint y="1" as="offset" />
          </mxGeometry>
        </mxCell>
        <mxCell id="nFB4tpNnGNIT1_HhN5Ei-163" style="edgeStyle=orthogonalEdgeStyle;rounded=0;orthogonalLoop=1;jettySize=auto;html=1;entryX=0.5;entryY=0;entryDx=0;entryDy=0;entryPerimeter=0;" parent="1" target="nFB4tpNnGNIT1_HhN5Ei-181" edge="1">
          <mxGeometry relative="1" as="geometry">
            <mxPoint x="1236.9200000000005" y="370" as="targetPoint" />
            <mxPoint x="1607" y="210" as="sourcePoint" />
          </mxGeometry>
        </mxCell>
        <mxCell id="nFB4tpNnGNIT1_HhN5Ei-164" style="edgeStyle=orthogonalEdgeStyle;rounded=0;orthogonalLoop=1;jettySize=auto;html=1;entryX=0.5;entryY=0;entryDx=0;entryDy=0;entryPerimeter=0;" parent="1" source="nFB4tpNnGNIT1_HhN5Ei-141" target="nFB4tpNnGNIT1_HhN5Ei-142" edge="1">
          <mxGeometry relative="1" as="geometry" />
        </mxCell>
        <mxCell id="nFB4tpNnGNIT1_HhN5Ei-165" style="edgeStyle=orthogonalEdgeStyle;rounded=0;orthogonalLoop=1;jettySize=auto;html=1;" parent="1" source="nFB4tpNnGNIT1_HhN5Ei-166" target="nFB4tpNnGNIT1_HhN5Ei-207" edge="1">
          <mxGeometry relative="1" as="geometry">
            <Array as="points">
              <mxPoint x="577" y="520" />
              <mxPoint x="877" y="520" />
            </Array>
          </mxGeometry>
        </mxCell>
        <object placeholders="1" c4Name="Витрина продаж" c4Type="Container" c4Technology="JavaScript, React" c4Description="Витрина для подбора и бронирования объектов недвижимости" label="&lt;font style=&quot;font-size: 16px&quot;&gt;&lt;b&gt;%c4Name%&lt;/b&gt;&lt;/font&gt;&lt;div&gt;[%c4Type%: %c4Technology%]&lt;/div&gt;&lt;br&gt;&lt;div&gt;&lt;font style=&quot;font-size: 11px&quot;&gt;&lt;font color=&quot;#E6E6E6&quot;&gt;%c4Description%&lt;/font&gt;&lt;/div&gt;" id="nFB4tpNnGNIT1_HhN5Ei-166">
          <mxCell style="rounded=1;whiteSpace=wrap;html=1;fontSize=11;labelBackgroundColor=none;fillColor=#23A2D9;fontColor=#ffffff;align=center;arcSize=10;strokeColor=#0E7DAD;metaEdit=1;resizable=0;points=[[0.25,0,0],[0.5,0,0],[0.75,0,0],[1,0.25,0],[1,0.5,0],[1,0.75,0],[0.75,1,0],[0.5,1,0],[0.25,1,0],[0,0.75,0],[0,0.5,0],[0,0.25,0]];" parent="1" vertex="1">
            <mxGeometry x="427" y="370" width="240" height="120" as="geometry" />
          </mxCell>
        </object>
        <object placeholders="1" c4Name="PropDevelopment" c4Type="SystemScopeBoundary" c4Application="Software System" label="&lt;font style=&quot;font-size: 16px&quot;&gt;&lt;b&gt;&lt;div style=&quot;text-align: left&quot;&gt;%c4Name%&lt;/div&gt;&lt;/b&gt;&lt;/font&gt;&lt;div style=&quot;text-align: left&quot;&gt;[%c4Application%]&lt;/div&gt;" id="nFB4tpNnGNIT1_HhN5Ei-167">
          <mxCell style="rounded=1;fontSize=11;whiteSpace=wrap;html=1;dashed=1;arcSize=20;fillColor=none;strokeColor=#666666;fontColor=#333333;labelBackgroundColor=none;align=left;verticalAlign=bottom;labelBorderColor=none;spacingTop=0;spacing=10;dashPattern=8 4;metaEdit=1;rotatable=0;perimeter=rectanglePerimeter;noLabel=0;labelPadding=0;allowArrows=0;connectable=0;expand=0;recursiveResize=0;editable=1;pointerEvents=0;absoluteArcSize=1;points=[[0.25,0,0],[0.5,0,0],[0.75,0,0],[1,0.25,0],[1,0.5,0],[1,0.75,0],[0.75,1,0],[0.5,1,0],[0.25,1,0],[0,0.75,0],[0,0.5,0],[0,0.25,0]];" parent="1" vertex="1">
            <mxGeometry x="-323" y="340" width="2700" height="1860" as="geometry" />
          </mxCell>
        </object>
        <object placeholders="1" c4Name="Active Directory" c4Type="Container" c4Technology="MS Active directory" c4Description="Служба каталогов, которая обслуживает финансовые сервисы" label="&lt;font style=&quot;font-size: 16px&quot;&gt;&lt;b&gt;%c4Name%&lt;/b&gt;&lt;/font&gt;&lt;div&gt;[%c4Type%: %c4Technology%]&lt;/div&gt;&lt;br&gt;&lt;div&gt;&lt;font style=&quot;font-size: 11px&quot;&gt;&lt;font color=&quot;#E6E6E6&quot;&gt;%c4Description%&lt;/font&gt;&lt;/div&gt;" id="nFB4tpNnGNIT1_HhN5Ei-168">
          <mxCell style="rounded=1;whiteSpace=wrap;html=1;fontSize=11;labelBackgroundColor=none;fillColor=#23A2D9;fontColor=#ffffff;align=center;arcSize=10;strokeColor=#0E7DAD;metaEdit=1;resizable=0;points=[[0.25,0,0],[0.5,0,0],[0.75,0,0],[1,0.25,0],[1,0.5,0],[1,0.75,0],[0.75,1,0],[0.5,1,0],[0.25,1,0],[0,0.75,0],[0,0.5,0],[0,0.25,0]];" parent="1" vertex="1">
            <mxGeometry x="-223" y="1239" width="240" height="120" as="geometry" />
          </mxCell>
        </object>
        <object placeholders="1" c4Name="Active Directory" c4Type="Container" c4Technology="MS Active directory" c4Description="Служба каталогов, которая обслуживает прикладные бизнес-системы и системы обработки данных" label="&lt;font style=&quot;font-size: 16px&quot;&gt;&lt;b&gt;%c4Name%&lt;/b&gt;&lt;/font&gt;&lt;div&gt;[%c4Type%: %c4Technology%]&lt;/div&gt;&lt;br&gt;&lt;div&gt;&lt;font style=&quot;font-size: 11px&quot;&gt;&lt;font color=&quot;#E6E6E6&quot;&gt;%c4Description%&lt;/font&gt;&lt;/div&gt;" id="nFB4tpNnGNIT1_HhN5Ei-169">
          <mxCell style="rounded=1;whiteSpace=wrap;html=1;fontSize=11;labelBackgroundColor=none;fillColor=#23A2D9;fontColor=#ffffff;align=center;arcSize=10;strokeColor=#0E7DAD;metaEdit=1;resizable=0;points=[[0.25,0,0],[0.5,0,0],[0.75,0,0],[1,0.25,0],[1,0.5,0],[1,0.75,0],[0.75,1,0],[0.5,1,0],[0.25,1,0],[0,0.75,0],[0,0.5,0],[0,0.25,0]];" parent="1" vertex="1">
            <mxGeometry x="127" y="1920" width="240" height="120" as="geometry" />
          </mxCell>
        </object>
        <mxCell id="nFB4tpNnGNIT1_HhN5Ei-170" style="edgeStyle=orthogonalEdgeStyle;rounded=0;orthogonalLoop=1;jettySize=auto;html=1;" parent="1" source="nFB4tpNnGNIT1_HhN5Ei-171" target="nFB4tpNnGNIT1_HhN5Ei-187" edge="1">
          <mxGeometry relative="1" as="geometry" />
        </mxCell>
        <object placeholders="1" c4Name="Бухгалтер" c4Type="Person" c4Description="Ведёт бухгалтерский учёт" label="&lt;font style=&quot;font-size: 16px&quot;&gt;&lt;b&gt;%c4Name%&lt;/b&gt;&lt;/font&gt;&lt;div&gt;[%c4Type%]&lt;/div&gt;&lt;br&gt;&lt;div&gt;&lt;font style=&quot;font-size: 11px&quot;&gt;&lt;font color=&quot;#cccccc&quot;&gt;%c4Description%&lt;/font&gt;&lt;/div&gt;" id="nFB4tpNnGNIT1_HhN5Ei-171">
          <mxCell style="html=1;fontSize=11;dashed=0;whiteSpace=wrap;fillColor=#083F75;strokeColor=#06315C;fontColor=#ffffff;shape=mxgraph.c4.person2;align=center;metaEdit=1;points=[[0.5,0,0],[1,0.5,0],[1,0.75,0],[0.75,1,0],[0.5,1,0],[0.25,1,0],[0,0.75,0],[0,0.5,0]];resizable=0;" parent="1" vertex="1">
            <mxGeometry x="-773" y="1590" width="200" height="180" as="geometry" />
          </mxCell>
        </object>
        <object placeholders="1" c4Name="Менеджер" c4Type="Person" c4Description="Работает с клиентами и объектами недвижимости, администрирует онлайн-сделки" label="&lt;font style=&quot;font-size: 16px&quot;&gt;&lt;b&gt;%c4Name%&lt;/b&gt;&lt;/font&gt;&lt;div&gt;[%c4Type%]&lt;/div&gt;&lt;br&gt;&lt;div&gt;&lt;font style=&quot;font-size: 11px&quot;&gt;&lt;font color=&quot;#cccccc&quot;&gt;%c4Description%&lt;/font&gt;&lt;/div&gt;" id="nFB4tpNnGNIT1_HhN5Ei-172">
          <mxCell style="html=1;fontSize=11;dashed=0;whiteSpace=wrap;fillColor=#083F75;strokeColor=#06315C;fontColor=#ffffff;shape=mxgraph.c4.person2;align=center;metaEdit=1;points=[[0.5,0,0],[1,0.5,0],[1,0.75,0],[0.75,1,0],[0.5,1,0],[0.25,1,0],[0,0.75,0],[0,0.5,0]];resizable=0;" parent="1" vertex="1">
            <mxGeometry x="-773" y="790" width="200" height="180" as="geometry" />
          </mxCell>
        </object>
        <object placeholders="1" c4Name="auth-service-1" c4Type="Container" c4Technology="Keycloak" c4Description="Сервис аутентификации покупателей" label="&lt;font style=&quot;font-size: 16px&quot;&gt;&lt;b&gt;%c4Name%&lt;/b&gt;&lt;/font&gt;&lt;div&gt;[%c4Type%: %c4Technology%]&lt;/div&gt;&lt;br&gt;&lt;div&gt;&lt;font style=&quot;font-size: 11px&quot;&gt;&lt;font color=&quot;#E6E6E6&quot;&gt;%c4Description%&lt;/font&gt;&lt;/div&gt;" id="nFB4tpNnGNIT1_HhN5Ei-173">
          <mxCell style="rounded=1;whiteSpace=wrap;html=1;fontSize=11;labelBackgroundColor=none;fillColor=#23A2D9;fontColor=#ffffff;align=center;arcSize=10;strokeColor=#0E7DAD;metaEdit=1;resizable=0;points=[[0.25,0,0],[0.5,0,0],[0.75,0,0],[1,0.25,0],[1,0.5,0],[1,0.75,0],[0.75,1,0],[0.5,1,0],[0.25,1,0],[0,0.75,0],[0,0.5,0],[0,0.25,0]];" parent="1" vertex="1">
            <mxGeometry x="1007" y="510" width="240" height="120" as="geometry" />
          </mxCell>
        </object>
        <mxCell id="nFB4tpNnGNIT1_HhN5Ei-174" style="edgeStyle=orthogonalEdgeStyle;rounded=0;orthogonalLoop=1;jettySize=auto;html=1;entryX=0.5;entryY=0;entryDx=0;entryDy=0;entryPerimeter=0;" parent="1" source="nFB4tpNnGNIT1_HhN5Ei-166" target="nFB4tpNnGNIT1_HhN5Ei-173" edge="1">
          <mxGeometry relative="1" as="geometry">
            <mxPoint x="1257" y="565" as="targetPoint" />
            <Array as="points">
              <mxPoint x="1127" y="460" />
            </Array>
          </mxGeometry>
        </mxCell>
        <mxCell id="nFB4tpNnGNIT1_HhN5Ei-175" value="Регистрация&lt;div&gt;Аутентификация&lt;/div&gt;&lt;div&gt;[REST]&lt;/div&gt;" style="edgeLabel;html=1;align=center;verticalAlign=middle;resizable=0;points=[];" parent="nFB4tpNnGNIT1_HhN5Ei-174" connectable="0" vertex="1">
          <mxGeometry x="0.2782" relative="1" as="geometry">
            <mxPoint x="134" y="-30" as="offset" />
          </mxGeometry>
        </mxCell>
        <object placeholders="1" c4Name="auth-db-1" c4Type="Container" c4Technology="PostgreSQL" c4Description="База данных сервиса аутентификации покупателей" label="&lt;font style=&quot;font-size: 16px&quot;&gt;&lt;b&gt;%c4Name%&lt;/b&gt;&lt;/font&gt;&lt;div&gt;[%c4Type%:&amp;nbsp;%c4Technology%]&lt;/div&gt;&lt;br&gt;&lt;div&gt;&lt;font style=&quot;font-size: 11px&quot;&gt;&lt;font color=&quot;#E6E6E6&quot;&gt;%c4Description%&lt;/font&gt;&lt;/div&gt;" id="nFB4tpNnGNIT1_HhN5Ei-176">
          <mxCell style="shape=cylinder3;size=15;whiteSpace=wrap;html=1;boundedLbl=1;rounded=0;labelBackgroundColor=none;fillColor=#23A2D9;fontSize=12;fontColor=#ffffff;align=center;strokeColor=#0E7DAD;metaEdit=1;points=[[0.5,0,0],[1,0.25,0],[1,0.5,0],[1,0.75,0],[0.5,1,0],[0,0.75,0],[0,0.5,0],[0,0.25,0]];resizable=0;" parent="1" vertex="1">
            <mxGeometry x="1007" y="680" width="240" height="120" as="geometry" />
          </mxCell>
        </object>
        <mxCell id="nFB4tpNnGNIT1_HhN5Ei-177" style="edgeStyle=orthogonalEdgeStyle;rounded=0;orthogonalLoop=1;jettySize=auto;html=1;entryX=0.5;entryY=0;entryDx=0;entryDy=0;entryPerimeter=0;" parent="1" source="nFB4tpNnGNIT1_HhN5Ei-173" target="nFB4tpNnGNIT1_HhN5Ei-176" edge="1">
          <mxGeometry relative="1" as="geometry" />
        </mxCell>
        <mxCell id="nFB4tpNnGNIT1_HhN5Ei-178" style="edgeStyle=orthogonalEdgeStyle;rounded=0;orthogonalLoop=1;jettySize=auto;html=1;exitX=0.005;exitY=0.33;exitDx=0;exitDy=0;exitPerimeter=0;entryX=0.5;entryY=0;entryDx=0;entryDy=0;entryPerimeter=0;" parent="1" source="nFB4tpNnGNIT1_HhN5Ei-181" target="nFB4tpNnGNIT1_HhN5Ei-173" edge="1">
          <mxGeometry relative="1" as="geometry">
            <mxPoint x="1257" y="535" as="targetPoint" />
            <Array as="points">
              <mxPoint x="1487" y="460" />
              <mxPoint x="1137" y="460" />
            </Array>
          </mxGeometry>
        </mxCell>
        <mxCell id="nFB4tpNnGNIT1_HhN5Ei-179" style="edgeStyle=orthogonalEdgeStyle;rounded=0;orthogonalLoop=1;jettySize=auto;html=1;" parent="1" source="nFB4tpNnGNIT1_HhN5Ei-181" target="nFB4tpNnGNIT1_HhN5Ei-121" edge="1">
          <mxGeometry relative="1" as="geometry">
            <Array as="points">
              <mxPoint x="1607" y="560" />
              <mxPoint x="1827" y="560" />
            </Array>
          </mxGeometry>
        </mxCell>
        <mxCell id="nFB4tpNnGNIT1_HhN5Ei-180" value="[REST]" style="edgeLabel;html=1;align=center;verticalAlign=middle;resizable=0;points=[];" parent="nFB4tpNnGNIT1_HhN5Ei-179" connectable="0" vertex="1">
          <mxGeometry x="-0.3582" y="2" relative="1" as="geometry">
            <mxPoint x="1" as="offset" />
          </mxGeometry>
        </mxCell>
        <object placeholders="1" c4Name="Витрина сервисов для собственников" c4Type="Container" c4Technology="Mobile app(iOS, Android)" c4Description="Мобильные приложения для собственников" label="&lt;font style=&quot;font-size: 16px&quot;&gt;&lt;b&gt;%c4Name%&lt;/b&gt;&lt;/font&gt;&lt;div&gt;[%c4Type%: %c4Technology%]&lt;/div&gt;&lt;br&gt;&lt;div&gt;&lt;font style=&quot;font-size: 11px&quot;&gt;&lt;font color=&quot;#E6E6E6&quot;&gt;%c4Description%&lt;/font&gt;&lt;/div&gt;" id="nFB4tpNnGNIT1_HhN5Ei-181">
          <mxCell style="rounded=1;whiteSpace=wrap;html=1;fontSize=11;labelBackgroundColor=none;fillColor=#23A2D9;fontColor=#ffffff;align=center;arcSize=10;strokeColor=#0E7DAD;metaEdit=1;resizable=0;points=[[0.25,0,0],[0.5,0,0],[0.75,0,0],[1,0.25,0],[1,0.5,0],[1,0.75,0],[0.75,1,0],[0.5,1,0],[0.25,1,0],[0,0.75,0],[0,0.5,0],[0,0.25,0]];" parent="1" vertex="1">
            <mxGeometry x="1487" y="420" width="240" height="120" as="geometry" />
          </mxCell>
        </object>
        <object placeholders="1" c4Name="auth-service-1" c4Type="Container" c4Technology="Keycloak" c4Description="Сервис аутентификации покупателей." label="&lt;font style=&quot;font-size: 16px&quot;&gt;&lt;b&gt;%c4Name%&lt;/b&gt;&lt;/font&gt;&lt;div&gt;[%c4Type%: %c4Technology%]&lt;/div&gt;&lt;br&gt;&lt;div&gt;&lt;font style=&quot;font-size: 11px&quot;&gt;&lt;font color=&quot;#E6E6E6&quot;&gt;%c4Description%&lt;/font&gt;&lt;/div&gt;" id="nFB4tpNnGNIT1_HhN5Ei-182">
          <mxCell style="rounded=1;whiteSpace=wrap;html=1;fontSize=11;labelBackgroundColor=none;fillColor=#23A2D9;fontColor=#ffffff;align=center;arcSize=10;strokeColor=#0E7DAD;metaEdit=1;resizable=0;points=[[0.25,0,0],[0.5,0,0],[0.75,0,0],[1,0.25,0],[1,0.5,0],[1,0.75,0],[0.75,1,0],[0.5,1,0],[0.25,1,0],[0,0.75,0],[0,0.5,0],[0,0.25,0]];" parent="1" vertex="1">
            <mxGeometry x="-203" y="1620" width="240" height="120" as="geometry" />
          </mxCell>
        </object>
        <object placeholders="1" c4Name="auth-db-1" c4Type="Container" c4Technology="PostgreSQL" c4Description="База данных сервиса аутентификации покупателей" label="&lt;font style=&quot;font-size: 16px&quot;&gt;&lt;b&gt;%c4Name%&lt;/b&gt;&lt;/font&gt;&lt;div&gt;[%c4Type%:&amp;nbsp;%c4Technology%]&lt;/div&gt;&lt;br&gt;&lt;div&gt;&lt;font style=&quot;font-size: 11px&quot;&gt;&lt;font color=&quot;#E6E6E6&quot;&gt;%c4Description%&lt;/font&gt;&lt;/div&gt;" id="nFB4tpNnGNIT1_HhN5Ei-183">
          <mxCell style="shape=cylinder3;size=15;whiteSpace=wrap;html=1;boundedLbl=1;rounded=0;labelBackgroundColor=none;fillColor=#23A2D9;fontSize=12;fontColor=#ffffff;align=center;strokeColor=#0E7DAD;metaEdit=1;points=[[0.5,0,0],[1,0.25,0],[1,0.5,0],[1,0.75,0],[0.5,1,0],[0,0.75,0],[0,0.5,0],[0,0.25,0]];resizable=0;" parent="1" vertex="1">
            <mxGeometry x="-203" y="1810" width="240" height="120" as="geometry" />
          </mxCell>
        </object>
        <mxCell id="nFB4tpNnGNIT1_HhN5Ei-184" style="edgeStyle=orthogonalEdgeStyle;rounded=0;orthogonalLoop=1;jettySize=auto;html=1;entryX=0.5;entryY=0;entryDx=0;entryDy=0;entryPerimeter=0;" parent="1" source="nFB4tpNnGNIT1_HhN5Ei-182" target="nFB4tpNnGNIT1_HhN5Ei-183" edge="1">
          <mxGeometry relative="1" as="geometry" />
        </mxCell>
        <mxCell id="nFB4tpNnGNIT1_HhN5Ei-185" style="edgeStyle=orthogonalEdgeStyle;rounded=0;orthogonalLoop=1;jettySize=auto;html=1;" parent="1" source="nFB4tpNnGNIT1_HhN5Ei-187" target="nFB4tpNnGNIT1_HhN5Ei-169" edge="1">
          <mxGeometry relative="1" as="geometry" />
        </mxCell>
        <mxCell id="nFB4tpNnGNIT1_HhN5Ei-186" value="Аутентификация" style="edgeLabel;html=1;align=center;verticalAlign=middle;resizable=0;points=[];" parent="nFB4tpNnGNIT1_HhN5Ei-185" connectable="0" vertex="1">
          <mxGeometry x="0.2659" relative="1" as="geometry">
            <mxPoint as="offset" />
          </mxGeometry>
        </mxCell>
        <object placeholders="1" c4Name="accountant-service-1" c4Type="Container" c4Technology="Keycloak" c4Description="Система бухгалтерского учёта" label="&lt;font style=&quot;font-size: 16px&quot;&gt;&lt;b&gt;%c4Name%&lt;/b&gt;&lt;/font&gt;&lt;div&gt;[%c4Type%: %c4Technology%]&lt;/div&gt;&lt;br&gt;&lt;div&gt;&lt;font style=&quot;font-size: 11px&quot;&gt;&lt;font color=&quot;#E6E6E6&quot;&gt;%c4Description%&lt;/font&gt;&lt;/div&gt;" id="nFB4tpNnGNIT1_HhN5Ei-187">
          <mxCell style="rounded=1;whiteSpace=wrap;html=1;fontSize=11;labelBackgroundColor=none;fillColor=#23A2D9;fontColor=#ffffff;align=center;arcSize=10;strokeColor=#0E7DAD;metaEdit=1;resizable=0;points=[[0.25,0,0],[0.5,0,0],[0.75,0,0],[1,0.25,0],[1,0.5,0],[1,0.75,0],[0.75,1,0],[0.5,1,0],[0.25,1,0],[0,0.75,0],[0,0.5,0],[0,0.25,0]];" parent="1" vertex="1">
            <mxGeometry x="-203" y="1620" width="240" height="120" as="geometry" />
          </mxCell>
        </object>
        <object placeholders="1" c4Name="auth-db-1" c4Type="Container" c4Technology="PostgreSQL" c4Description="База данных сервиса аутентификации покупателей" label="&lt;font style=&quot;font-size: 16px&quot;&gt;&lt;b&gt;%c4Name%&lt;/b&gt;&lt;/font&gt;&lt;div&gt;[%c4Type%:&amp;nbsp;%c4Technology%]&lt;/div&gt;&lt;br&gt;&lt;div&gt;&lt;font style=&quot;font-size: 11px&quot;&gt;&lt;font color=&quot;#E6E6E6&quot;&gt;%c4Description%&lt;/font&gt;&lt;/div&gt;" id="nFB4tpNnGNIT1_HhN5Ei-188">
          <mxCell style="shape=cylinder3;size=15;whiteSpace=wrap;html=1;boundedLbl=1;rounded=0;labelBackgroundColor=none;fillColor=#23A2D9;fontSize=12;fontColor=#ffffff;align=center;strokeColor=#0E7DAD;metaEdit=1;points=[[0.5,0,0],[1,0.25,0],[1,0.5,0],[1,0.75,0],[0.5,1,0],[0,0.75,0],[0,0.5,0],[0,0.25,0]];resizable=0;" parent="1" vertex="1">
            <mxGeometry x="-203" y="1810" width="240" height="120" as="geometry" />
          </mxCell>
        </object>
        <mxCell id="nFB4tpNnGNIT1_HhN5Ei-189" style="edgeStyle=orthogonalEdgeStyle;rounded=0;orthogonalLoop=1;jettySize=auto;html=1;exitX=1;exitY=0.75;exitDx=0;exitDy=0;exitPerimeter=0;" parent="1" source="nFB4tpNnGNIT1_HhN5Ei-172" edge="1">
          <mxGeometry relative="1" as="geometry">
            <mxPoint x="-323" y="930" as="targetPoint" />
            <Array as="points">
              <mxPoint x="-573" y="930" />
            </Array>
          </mxGeometry>
        </mxCell>
        <mxCell id="nFB4tpNnGNIT1_HhN5Ei-190" style="edgeStyle=orthogonalEdgeStyle;rounded=0;orthogonalLoop=1;jettySize=auto;html=1;entryX=1;entryY=0.5;entryDx=0;entryDy=0;entryPerimeter=0;" parent="1" source="nFB4tpNnGNIT1_HhN5Ei-141" target="nFB4tpNnGNIT1_HhN5Ei-168" edge="1">
          <mxGeometry relative="1" as="geometry">
            <Array as="points">
              <mxPoint x="822" y="1520" />
              <mxPoint x="87" y="1520" />
              <mxPoint x="87" y="1299" />
            </Array>
          </mxGeometry>
        </mxCell>
        <mxCell id="nFB4tpNnGNIT1_HhN5Ei-191" value="Аутентификация&amp;nbsp;&lt;div&gt;бизнес-аналитика&lt;/div&gt;" style="edgeLabel;html=1;align=center;verticalAlign=middle;resizable=0;points=[];" parent="nFB4tpNnGNIT1_HhN5Ei-190" connectable="0" vertex="1">
          <mxGeometry x="0.1545" y="-2" relative="1" as="geometry">
            <mxPoint x="1" as="offset" />
          </mxGeometry>
        </mxCell>
        <mxCell id="nFB4tpNnGNIT1_HhN5Ei-192" style="edgeStyle=orthogonalEdgeStyle;rounded=0;orthogonalLoop=1;jettySize=auto;html=1;exitX=1;exitY=0.75;exitDx=0;exitDy=0;exitPerimeter=0;" parent="1" source="nFB4tpNnGNIT1_HhN5Ei-193" edge="1">
          <mxGeometry relative="1" as="geometry">
            <mxPoint x="-323" y="1210" as="targetPoint" />
          </mxGeometry>
        </mxCell>
        <object placeholders="1" c4Name="Бизнес-аналитик" c4Type="Person" c4Description="Оптимизирует процессы и развивает прикладные бизнес-системы. Администрирует системы" label="&lt;font style=&quot;font-size: 16px&quot;&gt;&lt;b&gt;%c4Name%&lt;/b&gt;&lt;/font&gt;&lt;div&gt;[%c4Type%]&lt;/div&gt;&lt;br&gt;&lt;div&gt;&lt;font style=&quot;font-size: 11px&quot;&gt;&lt;font color=&quot;#cccccc&quot;&gt;%c4Description%&lt;/font&gt;&lt;/div&gt;" id="nFB4tpNnGNIT1_HhN5Ei-193">
          <mxCell style="html=1;fontSize=11;dashed=0;whiteSpace=wrap;fillColor=#083F75;strokeColor=#06315C;fontColor=#ffffff;shape=mxgraph.c4.person2;align=center;metaEdit=1;points=[[0.5,0,0],[1,0.5,0],[1,0.75,0],[0.75,1,0],[0.5,1,0],[0.25,1,0],[0,0.75,0],[0,0.5,0]];resizable=0;" parent="1" vertex="1">
            <mxGeometry x="-773" y="1075" width="200" height="180" as="geometry" />
          </mxCell>
        </object>
        <mxCell id="nFB4tpNnGNIT1_HhN5Ei-194" value="" style="edgeStyle=orthogonalEdgeStyle;rounded=0;orthogonalLoop=1;jettySize=auto;html=1;" parent="1" target="nFB4tpNnGNIT1_HhN5Ei-166" edge="1">
          <mxGeometry relative="1" as="geometry">
            <mxPoint x="547" y="220" as="sourcePoint" />
            <mxPoint x="547" y="370" as="targetPoint" />
          </mxGeometry>
        </mxCell>
        <mxCell id="nFB4tpNnGNIT1_HhN5Ei-195" value="" style="image;html=1;image=img/lib/clip_art/networking/Firewall_02_128x128.png" parent="1" vertex="1">
          <mxGeometry x="507" y="250" width="80" height="80" as="geometry" />
        </mxCell>
        <mxCell id="nFB4tpNnGNIT1_HhN5Ei-196" value="" style="image;html=1;image=img/lib/clip_art/networking/Firewall_02_128x128.png" parent="1" vertex="1">
          <mxGeometry x="1567" y="250" width="80" height="80" as="geometry" />
        </mxCell>
        <mxCell id="nFB4tpNnGNIT1_HhN5Ei-197" value="Firewall" style="text;html=1;align=center;verticalAlign=middle;whiteSpace=wrap;rounded=0;" parent="1" vertex="1">
          <mxGeometry x="577" y="275" width="60" height="30" as="geometry" />
        </mxCell>
        <mxCell id="nFB4tpNnGNIT1_HhN5Ei-198" value="Firewall" style="text;html=1;align=center;verticalAlign=middle;whiteSpace=wrap;rounded=0;" parent="1" vertex="1">
          <mxGeometry x="1657" y="275" width="60" height="30" as="geometry" />
        </mxCell>
        <mxCell id="nFB4tpNnGNIT1_HhN5Ei-199" value="&lt;b&gt;Группа сервисов&amp;nbsp;&lt;/b&gt;&lt;b style=&quot;background-color: initial;&quot;&gt;ЖКУ&lt;/b&gt;" style="text;html=1;align=center;verticalAlign=middle;whiteSpace=wrap;rounded=0;" parent="1" vertex="1">
          <mxGeometry x="1827" y="400" width="90" height="30" as="geometry" />
        </mxCell>
        <mxCell id="nFB4tpNnGNIT1_HhN5Ei-200" value="&lt;b&gt;Группа сервисов для клиентов&lt;/b&gt;" style="text;html=1;align=center;verticalAlign=middle;whiteSpace=wrap;rounded=0;" parent="1" vertex="1">
          <mxGeometry x="757" y="350" width="100" height="105" as="geometry" />
        </mxCell>
        <object placeholders="1" c4Name="Аналитик BI" c4Type="Person" c4Description="Анализирует данные и готовит отчётность" label="&lt;font style=&quot;font-size: 16px&quot;&gt;&lt;b&gt;%c4Name%&lt;/b&gt;&lt;/font&gt;&lt;div&gt;[%c4Type%]&lt;/div&gt;&lt;br&gt;&lt;div&gt;&lt;font style=&quot;font-size: 11px&quot;&gt;&lt;font color=&quot;#cccccc&quot;&gt;%c4Description%&lt;/font&gt;&lt;/div&gt;" id="nFB4tpNnGNIT1_HhN5Ei-201">
          <mxCell style="html=1;fontSize=11;dashed=0;whiteSpace=wrap;fillColor=#083F75;strokeColor=#06315C;fontColor=#ffffff;shape=mxgraph.c4.person2;align=center;metaEdit=1;points=[[0.5,0,0],[1,0.5,0],[1,0.75,0],[0.75,1,0],[0.5,1,0],[0.25,1,0],[0,0.75,0],[0,0.5,0]];resizable=0;" parent="1" vertex="1">
            <mxGeometry x="2175" y="1401" width="200" height="180" as="geometry" />
          </mxCell>
        </object>
        <mxCell id="nFB4tpNnGNIT1_HhN5Ei-202" style="edgeStyle=orthogonalEdgeStyle;rounded=0;orthogonalLoop=1;jettySize=auto;html=1;entryX=0.976;entryY=0.936;entryDx=0;entryDy=0;entryPerimeter=0;" parent="1" source="nFB4tpNnGNIT1_HhN5Ei-201" target="nFB4tpNnGNIT1_HhN5Ei-141" edge="1">
          <mxGeometry relative="1" as="geometry" />
        </mxCell>
        <object placeholders="1" c4Name="Поставщик ресурсов ЖКХ" c4Type="Software System" c4Description="" label="&lt;font style=&quot;font-size: 16px&quot;&gt;&lt;b&gt;%c4Name%&lt;/b&gt;&lt;/font&gt;&lt;div&gt;[%c4Type%]&lt;/div&gt;&lt;br&gt;&lt;div&gt;&lt;font style=&quot;font-size: 11px&quot;&gt;&lt;font color=&quot;#cccccc&quot;&gt;%c4Description%&lt;/font&gt;&lt;/div&gt;" id="nFB4tpNnGNIT1_HhN5Ei-203">
          <mxCell style="rounded=1;whiteSpace=wrap;html=1;labelBackgroundColor=none;fillColor=#8C8496;fontColor=#ffffff;align=center;arcSize=10;strokeColor=#736782;metaEdit=1;resizable=0;points=[[0.25,0,0],[0.5,0,0],[0.75,0,0],[1,0.25,0],[1,0.5,0],[1,0.75,0],[0.75,1,0],[0.5,1,0],[0.25,1,0],[0,0.75,0],[0,0.5,0],[0,0.25,0]];" parent="1" vertex="1">
            <mxGeometry x="2464" y="475" width="240" height="120" as="geometry" />
          </mxCell>
        </object>
        <mxCell id="nFB4tpNnGNIT1_HhN5Ei-204" style="edgeStyle=orthogonalEdgeStyle;rounded=0;orthogonalLoop=1;jettySize=auto;html=1;entryX=1;entryY=0.5;entryDx=0;entryDy=0;entryPerimeter=0;exitX=1;exitY=0.5;exitDx=0;exitDy=0;exitPerimeter=0;" parent="1" source="nFB4tpNnGNIT1_HhN5Ei-118" target="nFB4tpNnGNIT1_HhN5Ei-147" edge="1">
          <mxGeometry relative="1" as="geometry">
            <mxPoint x="717" y="890" as="sourcePoint" />
            <mxPoint x="837" y="620" as="targetPoint" />
            <Array as="points">
              <mxPoint x="707" y="940" />
              <mxPoint x="707" y="610" />
            </Array>
          </mxGeometry>
        </mxCell>
        <mxCell id="nFB4tpNnGNIT1_HhN5Ei-205" value="Публикация&amp;nbsp;&lt;div&gt;каталога объектов&lt;div&gt;[Kafka]&lt;/div&gt;&lt;/div&gt;" style="edgeLabel;html=1;align=center;verticalAlign=middle;resizable=0;points=[];" parent="nFB4tpNnGNIT1_HhN5Ei-204" connectable="0" vertex="1">
          <mxGeometry x="0.1891" y="1" relative="1" as="geometry">
            <mxPoint x="21" y="-41" as="offset" />
          </mxGeometry>
        </mxCell>
        <mxCell id="nFB4tpNnGNIT1_HhN5Ei-206" style="edgeStyle=orthogonalEdgeStyle;rounded=0;orthogonalLoop=1;jettySize=auto;html=1;" parent="1" source="nFB4tpNnGNIT1_HhN5Ei-207" target="nFB4tpNnGNIT1_HhN5Ei-208" edge="1">
          <mxGeometry relative="1" as="geometry" />
        </mxCell>
        <object placeholders="1" c4Name="client-tour-app" c4Type="Container" c4Technology="Container: Kotlin, SpringBoot" c4Description="Приложение для проведения 3D-тура по объекту недвижимости (онлайн-тур)" label="&lt;font style=&quot;font-size: 16px&quot;&gt;&lt;b&gt;%c4Name%&lt;/b&gt;&lt;/font&gt;&lt;div&gt;[%c4Type%: %c4Technology%]&lt;/div&gt;&lt;br&gt;&lt;div&gt;&lt;font style=&quot;font-size: 11px&quot;&gt;&lt;font color=&quot;#E6E6E6&quot;&gt;%c4Description%&lt;/font&gt;&lt;/div&gt;" id="nFB4tpNnGNIT1_HhN5Ei-207">
          <mxCell style="rounded=1;whiteSpace=wrap;html=1;fontSize=11;labelBackgroundColor=none;fillColor=#23A2D9;fontColor=#ffffff;align=center;arcSize=10;strokeColor=#0E7DAD;metaEdit=1;resizable=0;points=[[0.25,0,0],[0.5,0,0],[0.75,0,0],[1,0.25,0],[1,0.5,0],[1,0.75,0],[0.75,1,0],[0.5,1,0],[0.25,1,0],[0,0.75,0],[0,0.5,0],[0,0.25,0]];" parent="1" vertex="1">
            <mxGeometry x="747" y="550" width="240" height="120" as="geometry" />
          </mxCell>
        </object>
        <object placeholders="1" c4Name="client-tour-db" c4Type="Container" c4Technology="PostgreSQL" c4Description="База данных проведения онлайн-тура" label="&lt;font style=&quot;font-size: 14px&quot;&gt;&lt;b&gt;%c4Name%&lt;/b&gt;&lt;/font&gt;&lt;div&gt;[%c4Type%:&amp;nbsp;%c4Technology%]&lt;/div&gt;&lt;br&gt;&lt;div&gt;&lt;font style=&quot;font-size: 11px&quot;&gt;&lt;font color=&quot;#E6E6E6&quot;&gt;%c4Description%&lt;/font&gt;&lt;/div&gt;" id="nFB4tpNnGNIT1_HhN5Ei-208">
          <mxCell style="shape=cylinder3;size=15;whiteSpace=wrap;html=1;boundedLbl=1;rounded=0;labelBackgroundColor=none;fillColor=#23A2D9;fontSize=12;fontColor=#ffffff;align=center;strokeColor=#0E7DAD;metaEdit=1;points=[[0.5,0,0],[1,0.25,0],[1,0.5,0],[1,0.75,0],[0.5,1,0],[0,0.75,0],[0,0.5,0],[0,0.25,0]];resizable=0;" parent="1" vertex="1">
            <mxGeometry x="747" y="700" width="240" height="120" as="geometry" />
          </mxCell>
        </object>
        <mxCell id="nFB4tpNnGNIT1_HhN5Ei-209" style="edgeStyle=orthogonalEdgeStyle;rounded=0;orthogonalLoop=1;jettySize=auto;html=1;entryX=0;entryY=0.5;entryDx=0;entryDy=0;entryPerimeter=0;" parent="1" source="nFB4tpNnGNIT1_HhN5Ei-118" target="nFB4tpNnGNIT1_HhN5Ei-207" edge="1">
          <mxGeometry relative="1" as="geometry">
            <Array as="points">
              <mxPoint x="707" y="940" />
              <mxPoint x="707" y="610" />
            </Array>
          </mxGeometry>
        </mxCell>
        <object placeholders="1" c4Name="Государственные регистрационные органы" c4Type="Software System" c4Description="Отвечают за регистрационные действия с объектами недвижимости" label="&lt;font style=&quot;font-size: 16px&quot;&gt;&lt;b&gt;%c4Name%&lt;/b&gt;&lt;/font&gt;&lt;div&gt;[%c4Type%]&lt;/div&gt;&lt;br&gt;&lt;div&gt;&lt;font style=&quot;font-size: 11px&quot;&gt;&lt;font color=&quot;#cccccc&quot;&gt;%c4Description%&lt;/font&gt;&lt;/div&gt;" id="nFB4tpNnGNIT1_HhN5Ei-210">
          <mxCell style="rounded=1;whiteSpace=wrap;html=1;labelBackgroundColor=none;fillColor=#8C8496;fontColor=#ffffff;align=center;arcSize=10;strokeColor=#736782;metaEdit=1;resizable=0;points=[[0.25,0,0],[0.5,0,0],[0.75,0,0],[1,0.25,0],[1,0.5,0],[1,0.75,0],[0.75,1,0],[0.5,1,0],[0.25,1,0],[0,0.75,0],[0,0.5,0],[0,0.25,0]];" parent="1" vertex="1">
            <mxGeometry x="-783" y="610" width="240" height="120" as="geometry" />
          </mxCell>
        </object>
        <mxCell id="nFB4tpNnGNIT1_HhN5Ei-211" style="edgeStyle=orthogonalEdgeStyle;rounded=0;orthogonalLoop=1;jettySize=auto;html=1;entryX=1;entryY=0.5;entryDx=0;entryDy=0;entryPerimeter=0;exitX=0;exitY=0.5;exitDx=0;exitDy=0;exitPerimeter=0;" parent="1" source="nFB4tpNnGNIT1_HhN5Ei-147" target="nFB4tpNnGNIT1_HhN5Ei-210" edge="1">
          <mxGeometry relative="1" as="geometry">
            <Array as="points">
              <mxPoint x="417" y="610" />
              <mxPoint x="417" y="680" />
              <mxPoint x="-43" y="680" />
              <mxPoint x="-43" y="670" />
              <mxPoint x="-513" y="670" />
            </Array>
          </mxGeometry>
        </mxCell>
        <mxCell id="nFB4tpNnGNIT1_HhN5Ei-212" value="СМЭВ&lt;div&gt;[SOAP]&lt;/div&gt;" style="edgeLabel;html=1;align=center;verticalAlign=middle;resizable=0;points=[];" parent="nFB4tpNnGNIT1_HhN5Ei-211" connectable="0" vertex="1">
          <mxGeometry x="0.1438" y="2" relative="1" as="geometry">
            <mxPoint x="50" y="-2" as="offset" />
          </mxGeometry>
        </mxCell>
        <object placeholders="1" c4Name="Клиент" c4Type="Person" c4Description="Клиент" label="&lt;font style=&quot;font-size: 16px&quot;&gt;&lt;b&gt;%c4Name%&lt;/b&gt;&lt;/font&gt;&lt;div&gt;[%c4Type%]&lt;/div&gt;&lt;br&gt;&lt;div&gt;&lt;font style=&quot;font-size: 11px&quot;&gt;&lt;font color=&quot;#cccccc&quot;&gt;%c4Description%&lt;/font&gt;&lt;/div&gt;" id="nFB4tpNnGNIT1_HhN5Ei-213">
          <mxCell style="html=1;fontSize=11;dashed=0;whiteSpace=wrap;fillColor=#083F75;strokeColor=#06315C;fontColor=#ffffff;shape=mxgraph.c4.person2;align=center;metaEdit=1;points=[[0.5,0,0],[1,0.5,0],[1,0.75,0],[0.75,1,0],[0.5,1,0],[0.25,1,0],[0,0.75,0],[0,0.5,0]];resizable=0;" parent="1" vertex="1">
            <mxGeometry x="447" y="40" width="200" height="180" as="geometry" />
          </mxCell>
        </object>
        <object placeholders="1" c4Name="Собственник" c4Type="Person" c4Description="Клиент" label="&lt;font style=&quot;font-size: 16px&quot;&gt;&lt;b&gt;%c4Name%&lt;/b&gt;&lt;/font&gt;&lt;div&gt;[%c4Type%]&lt;/div&gt;&lt;br&gt;&lt;div&gt;&lt;font style=&quot;font-size: 11px&quot;&gt;&lt;font color=&quot;#cccccc&quot;&gt;%c4Description%&lt;/font&gt;&lt;/div&gt;" id="nFB4tpNnGNIT1_HhN5Ei-214">
          <mxCell style="html=1;fontSize=11;dashed=0;whiteSpace=wrap;fillColor=#083F75;strokeColor=#06315C;fontColor=#ffffff;shape=mxgraph.c4.person2;align=center;metaEdit=1;points=[[0.5,0,0],[1,0.5,0],[1,0.75,0],[0.75,1,0],[0.5,1,0],[0.25,1,0],[0,0.75,0],[0,0.5,0]];resizable=0;" parent="1" vertex="1">
            <mxGeometry x="1507" y="30" width="200" height="180" as="geometry" />
          </mxCell>
        </object>
        <mxCell id="N7up1yi3ZS6KVWzqlXeY-40" value="" style="group;fontStyle=1;strokeColor=#006633;strokeWidth=4;" parent="1" vertex="1" connectable="0">
          <mxGeometry x="2170" y="1150" width="112" height="48" as="geometry" />
        </mxCell>
        <mxCell id="N7up1yi3ZS6KVWzqlXeY-41" value="" style="aspect=fixed;sketch=0;html=1;dashed=0;whitespace=wrap;verticalLabelPosition=bottom;verticalAlign=top;fillColor=#2875E2;strokeColor=#ffffff;points=[[0.005,0.63,0],[0.1,0.2,0],[0.9,0.2,0],[0.5,0,0],[0.995,0.63,0],[0.72,0.99,0],[0.5,1,0],[0.28,0.99,0]];shape=mxgraph.kubernetes.icon2;prIcon=c_role" parent="N7up1yi3ZS6KVWzqlXeY-40" vertex="1">
          <mxGeometry x="10" y="9" width="32.5" height="30" as="geometry" />
        </mxCell>
        <mxCell id="N7up1yi3ZS6KVWzqlXeY-42" value="&lt;font style=&quot;font-size: 11px;&quot;&gt;Circuit Breaker&lt;/font&gt;" style="text;html=1;align=center;verticalAlign=middle;whiteSpace=wrap;rounded=0;fontStyle=1;strokeColor=none;" parent="N7up1yi3ZS6KVWzqlXeY-40" vertex="1">
          <mxGeometry x="50" y="9" width="62" height="30" as="geometry" />
        </mxCell>
        <mxCell id="N7up1yi3ZS6KVWzqlXeY-43" value="" style="group;strokeColor=#006633;strokeWidth=4;" parent="1" vertex="1" connectable="0">
          <mxGeometry x="2170" y="1090" width="113" height="48" as="geometry" />
        </mxCell>
        <mxCell id="N7up1yi3ZS6KVWzqlXeY-44" value="" style="aspect=fixed;sketch=0;html=1;dashed=0;whitespace=wrap;verticalLabelPosition=bottom;verticalAlign=top;fillColor=#2875E2;strokeColor=#ffffff;points=[[0.005,0.63,0],[0.1,0.2,0],[0.9,0.2,0],[0.5,0,0],[0.995,0.63,0],[0.72,0.99,0],[0.5,1,0],[0.28,0.99,0]];shape=mxgraph.kubernetes.icon2;prIcon=deploy;rotation=0;" parent="N7up1yi3ZS6KVWzqlXeY-43" vertex="1">
          <mxGeometry x="9" y="9" width="32.5" height="30" as="geometry" />
        </mxCell>
        <mxCell id="N7up1yi3ZS6KVWzqlXeY-45" value="&lt;b&gt;Retry&lt;/b&gt;" style="text;html=1;align=center;verticalAlign=middle;whiteSpace=wrap;rounded=0;" parent="N7up1yi3ZS6KVWzqlXeY-43" vertex="1">
          <mxGeometry x="51" y="9" width="62" height="30" as="geometry" />
        </mxCell>
        <mxCell id="N7up1yi3ZS6KVWzqlXeY-46" value="" style="group;strokeColor=#006633;strokeWidth=4;" parent="1" vertex="1" connectable="0">
          <mxGeometry x="2050" y="1150" width="113" height="48" as="geometry" />
        </mxCell>
        <mxCell id="N7up1yi3ZS6KVWzqlXeY-47" value="" style="aspect=fixed;sketch=0;html=1;dashed=0;whitespace=wrap;verticalLabelPosition=bottom;verticalAlign=top;fillColor=#2875E2;strokeColor=#ffffff;points=[[0.005,0.63,0],[0.1,0.2,0],[0.9,0.2,0],[0.5,0,0],[0.995,0.63,0],[0.72,0.99,0],[0.5,1,0],[0.28,0.99,0]];shape=mxgraph.kubernetes.icon2;prIcon=quota" parent="N7up1yi3ZS6KVWzqlXeY-46" vertex="1">
          <mxGeometry x="10" y="9" width="32.5" height="30" as="geometry" />
        </mxCell>
        <mxCell id="N7up1yi3ZS6KVWzqlXeY-48" value="&lt;font style=&quot;font-size: 11px;&quot;&gt;&lt;b&gt;TimeOut&lt;/b&gt;&lt;/font&gt;" style="text;html=1;align=center;verticalAlign=middle;whiteSpace=wrap;rounded=0;" parent="N7up1yi3ZS6KVWzqlXeY-46" vertex="1">
          <mxGeometry x="51" y="11" width="62" height="30" as="geometry" />
        </mxCell>
        <mxCell id="N7up1yi3ZS6KVWzqlXeY-53" value="Требования к безопасности:&#xa;&#xa;1. HTTPS API Gateway - для взаимодействия с внешними истсмемами. (как минимум - шифрация канала ПДН + контролируемый доступ к API)&#xa;2. Двухфакторная аутентификация (к примеру через Yandex Key)&#xa;3. Сложность паролей не ниже, описанных в метод материалх ФСТЭК: в http://fstec.ru/tekhnicheskaya-zashchita-informatsii/dokumenty/114-tekhnicheskaya-zashchita-informatsii/dokumenty/spetsialnye-normativnye-dokumenty/805-metodicheskij-dokument&#xa;4 Разработать и внедрить ЛНА в части обеспечения ИБ с описанием процедур ( &#xa; - проведение аудит и пересмотр учётных записей с повышенными привилегиями на регулярной основе, &#xa; - применение принципов минимальных привилегий при назначении ролей и прав доступа,.&#xa; - процедуры удаления и деактивации учётных записей после увольнения или изменения должности сотрудников&#xa; - Ведёния и журналирование всех операций доступа к системам и данным&#xa; - Организация доступа к журналам операций доступа к системам и данным&#xa; - ... и т.п. из списка проверочного листа в части п.п. I, II, IV)&#xa;4. Установка мониторинга действий/событий в т.ч. ИБ." style="text;whiteSpace=wrap;fontFamily=Times New Roman;fontSize=22;fontStyle=0" parent="1" vertex="1">
          <mxGeometry x="2800" y="450" width="815" height="751" as="geometry" />
        </mxCell>
        <mxCell id="N7up1yi3ZS6KVWzqlXeY-55" value="" style="group;strokeColor=#006633;strokeWidth=4;" parent="1" vertex="1" connectable="0">
          <mxGeometry x="2050" y="1090" width="113" height="48" as="geometry" />
        </mxCell>
        <mxCell id="N7up1yi3ZS6KVWzqlXeY-57" value="&lt;b&gt;2FA&lt;/b&gt;" style="text;html=1;align=center;verticalAlign=middle;whiteSpace=wrap;rounded=0;" parent="N7up1yi3ZS6KVWzqlXeY-55" vertex="1">
          <mxGeometry x="51" y="9" width="62" height="30" as="geometry" />
        </mxCell>
        <mxCell id="N7up1yi3ZS6KVWzqlXeY-54" value="" style="shape=image;verticalLabelPosition=bottom;verticalAlign=top;imageAspect=0;aspect=fixed;image=data:image/svg+xml,PHN2ZyB4bWxucz0iaHR0cDovL3d3dy53My5vcmcvMjAwMC9zdmciIHdpZHRoPSIzMiIgaGVpZ2h0PSIzMiIgdmlld0JveD0iMCAwIDMyIDMyIiBmaWxsPSJub25lIj4mI3hhOzxwYXRoIGQ9Ik0wIDE2QzAgNy4xNjM0NCA3LjE2MzQ0IDAgMTYgMFYwQzI0LjgzNjYgMCAzMiA3LjE2MzQ0IDMyIDE2VjE2QzMyIDI0LjgzNjYgMjQuODM2NiAzMiAxNiAzMlYzMkM3LjE2MzQ0IDMyIDAgMjQuODM2NiAwIDE2VjE2WiIgZmlsbD0iIzUyODJGRiIvPiYjeGE7PHBhdGggZmlsbC1ydWxlPSJldmVub2RkIiBjbGlwLXJ1bGU9ImV2ZW5vZGQiIGQ9Ik0xMC4wMDYyIDIyLjU4NjdWMTUuNDEzM0MxMC4wMDYyIDE0LjYyNjcgMTAuNjM5OCAxNCAxMS40MiAxNEgxMi4wMDE2VjEyQzEyLjAwMTYgOS42NCAxMy43NzE1IDggMTYuMDAyOSA4QzE4LjIyOSA4IDIwLjAwNDIgOS42NCAyMC4wMDQyIDEyVjE0SDIwLjU5MjRDMjEuMzcyNyAxNCAyMi4wMDYyIDE0LjYyNjcgMjIuMDA2MiAxNS40MTMzVjIyLjU4NjdDMjIuMDA2MiAyMy4zNzMzIDIxLjM3MjcgMjQgMjAuNTkyNCAyNEgxMS40MkMxMC42Mzk4IDI0IDEwLjAwNjIgMjMuMzczMyAxMC4wMDYyIDIyLjU4NjdaTTE2LjI2OTYgMjAuNzA2N0wxOS4yNzA2IDE3LjcwNjdDMTkuNjYxNCAxNy4zMiAxOS42NjE0IDE2LjY4IDE5LjI3MDYgMTYuMjkzM0MxOC44Nzk5IDE1LjkwNjcgMTguMjQ2MyAxNS45MDY3IDE3Ljg1NTUgMTYuMjkzM0wxNS41NjI3IDE4LjU4NjdMMTQuMjY5IDE3LjI5MzNDMTMuODc4MiAxNi45MDY3IDEzLjI0NDYgMTYuOTA2NyAxMi44NTM4IDE3LjI5MzNDMTIuNDYzIDE3LjY4IDEyLjQ2MyAxOC4zMiAxMi44NTM4IDE4LjcwNjdMMTQuODU0NSAyMC43MDY3QzE1LjI0NTMgMjEuMDkzMyAxNS44Nzg4IDIxLjA5MzMgMTYuMjY5NiAyMC43MDY3Wk0xOC4wMDM2IDE0VjEyQzE4LjAwMzYgMTAuNzczMyAxNy4xNTkzIDEwIDE2LjAwMjkgMTBDMTQuODQyNSAxMCAxNC4wMDIyIDEwLjc3MzMgMTQuMDAyMiAxMlYxNEgxOC4wMDM2WiIgZmlsbD0id2hpdGUiLz4mI3hhOzwvc3ZnPg==;sketch=1;hachureGap=4;jiggle=2;curveFitting=1;fontFamily=Architects Daughter;fontSource=https%3A%2F%2Ffonts.googleapis.com%2Fcss%3Ffamily%3DArchitects%2BDaughter;" parent="N7up1yi3ZS6KVWzqlXeY-55" vertex="1">
          <mxGeometry x="10" y="9" width="30" height="30" as="geometry" />
        </mxCell>
        <mxCell id="N7up1yi3ZS6KVWzqlXeY-69" value="" style="group;fontStyle=1;strokeColor=#006633;strokeWidth=4;" parent="1" vertex="1" connectable="0">
          <mxGeometry x="2110" y="1210" width="112" height="48" as="geometry" />
        </mxCell>
        <mxCell id="N7up1yi3ZS6KVWzqlXeY-71" value="&lt;font style=&quot;font-size: 11px;&quot;&gt;Prometheus&lt;/font&gt;" style="text;html=1;align=center;verticalAlign=middle;whiteSpace=wrap;rounded=0;fontStyle=1;strokeColor=none;" parent="N7up1yi3ZS6KVWzqlXeY-69" vertex="1">
          <mxGeometry x="50" y="5.75" width="50" height="31" as="geometry" />
        </mxCell>
        <mxCell id="N7up1yi3ZS6KVWzqlXeY-68" value="" style="shape=image;verticalLabelPosition=bottom;verticalAlign=top;imageAspect=0;aspect=fixed;image=data:image/svg+xml,PHN2ZyB4bWxucz0iaHR0cDovL3d3dy53My5vcmcvMjAwMC9zdmciIGZpbGw9Im5vbmUiIHZpZXdCb3g9IjAgMCAzMiAzMiIgaGVpZ2h0PSIzMiIgd2lkdGg9IjMyIj4mI3hhOzxyZWN0IGZpbGw9IiM1MjgyRkYiIHJ4PSIxNiIgaGVpZ2h0PSIzMiIgd2lkdGg9IjMyIi8+JiN4YTs8cGF0aCBmaWxsPSJ3aGl0ZSIgZD0iTTkgMTcuNUM5IDIyIDEyLjUgMjQgMTYgMjRDMTkuNSAyNCAyMyAyMiAyMyAxNy41QzIzIDEzLjkgMjAgMTAgMTggOEMxNi41IDkuNSAxNSAxMS41IDE0LjUgMTMuNUMxNCAxMiAxMy41IDExLjI1IDEyLjUgMTBDMTAuNSAxMS41IDkgMTUgOSAxNy41Wk0xNiAyMkMxNC43NSAyMiAxNCAyMS4yNSAxNCAyMEMxNCAxOC43NSAxNC41IDE3LjUgMTYgMTZDMTcuNSAxNy41IDE4IDE4Ljc1IDE4IDIwQzE4IDIxLjI1IDE3LjI1IDIyIDE2IDIyWiIgY2xpcC1ydWxlPSJldmVub2RkIiBmaWxsLXJ1bGU9ImV2ZW5vZGQiLz4mI3hhOzwvc3ZnPg==;sketch=1;hachureGap=4;jiggle=2;curveFitting=1;fontFamily=Architects Daughter;fontSource=https%3A%2F%2Ffonts.googleapis.com%2Fcss%3Ffamily%3DArchitects%2BDaughter;" parent="N7up1yi3ZS6KVWzqlXeY-69" vertex="1">
          <mxGeometry x="10" y="11.25" width="25.5" height="25.5" as="geometry" />
        </mxCell>
        <mxCell id="f541CvpvuusSGl8fDKQ8-2" style="edgeStyle=orthogonalEdgeStyle;rounded=0;orthogonalLoop=1;jettySize=auto;html=1;entryX=0;entryY=0.5;entryDx=0;entryDy=0;entryPerimeter=0;strokeWidth=3;fillColor=#d5e8d4;strokeColor=#82b366;" parent="1" target="nFB4tpNnGNIT1_HhN5Ei-134" edge="1">
          <mxGeometry relative="1" as="geometry">
            <mxPoint x="2153" y="1024.9999999999998" as="sourcePoint" />
          </mxGeometry>
        </mxCell>
        <mxCell id="f541CvpvuusSGl8fDKQ8-3" style="edgeStyle=orthogonalEdgeStyle;rounded=0;orthogonalLoop=1;jettySize=auto;html=1;entryX=0;entryY=0.5;entryDx=0;entryDy=0;entryPerimeter=0;fillColor=#d5e8d4;strokeColor=#82b366;strokeWidth=3;" parent="1" target="nFB4tpNnGNIT1_HhN5Ei-203" edge="1">
          <mxGeometry relative="1" as="geometry">
            <Array as="points">
              <mxPoint x="2310" y="1025" />
              <mxPoint x="2310" y="535" />
            </Array>
            <mxPoint x="2153" y="1024.9999999999998" as="sourcePoint" />
          </mxGeometry>
        </mxCell>
        <mxCell id="f541CvpvuusSGl8fDKQ8-4" style="edgeStyle=orthogonalEdgeStyle;rounded=0;orthogonalLoop=1;jettySize=auto;html=1;fillColor=#d5e8d4;strokeColor=#82b366;strokeWidth=3;" parent="1" target="kIscD1tAKLr0vjfSmmDm-1" edge="1">
          <mxGeometry relative="1" as="geometry">
            <Array as="points">
              <mxPoint x="2440" y="1025" />
              <mxPoint x="2440" y="1025" />
            </Array>
            <mxPoint x="2153" y="1024.9999999999998" as="sourcePoint" />
          </mxGeometry>
        </mxCell>
        <mxCell id="f541CvpvuusSGl8fDKQ8-5" style="edgeStyle=orthogonalEdgeStyle;rounded=0;orthogonalLoop=1;jettySize=auto;html=1;entryX=0;entryY=0.5;entryDx=0;entryDy=0;entryPerimeter=0;fillColor=#d5e8d4;strokeColor=#82b366;strokeWidth=3;exitX=1;exitY=0.5;exitDx=0;exitDy=0;exitPerimeter=0;" parent="1" source="kIscD1tAKLr0vjfSmmDm-2" target="f541CvpvuusSGl8fDKQ8-8" edge="1">
          <mxGeometry relative="1" as="geometry">
            <Array as="points">
              <mxPoint x="2360" y="1024" />
              <mxPoint x="2360" y="890" />
            </Array>
          </mxGeometry>
        </mxCell>
        <object placeholders="1" c4Name="Интелектуальный шлагбаум" c4Type="Container" c4Technology="Mobile app(iOS, Android)" c4Description="функции управления шлагбаумом" label="&lt;font style=&quot;font-size: 16px&quot;&gt;&lt;b&gt;%c4Name%&lt;/b&gt;&lt;/font&gt;&lt;div&gt;[%c4Type%: %c4Technology%]&lt;/div&gt;&lt;br&gt;&lt;div&gt;&lt;font style=&quot;font-size: 11px&quot;&gt;&lt;font color=&quot;#E6E6E6&quot;&gt;%c4Description%&lt;/font&gt;&lt;/div&gt;" id="f541CvpvuusSGl8fDKQ8-8">
          <mxCell style="rounded=1;whiteSpace=wrap;html=1;fontSize=11;labelBackgroundColor=none;fillColor=#23A2D9;fontColor=#ffffff;align=center;arcSize=10;strokeColor=#0E7DAD;metaEdit=1;resizable=0;points=[[0.25,0,0],[0.5,0,0],[0.75,0,0],[1,0.25,0],[1,0.5,0],[1,0.75,0],[0.75,1,0],[0.5,1,0],[0.25,1,0],[0,0.75,0],[0,0.5,0],[0,0.25,0]];" parent="1" vertex="1">
            <mxGeometry x="2464" y="830" width="240" height="120" as="geometry" />
          </mxCell>
        </object>
        <object placeholders="1" c4Name="Интеллектуальный домофон" c4Type="Container" c4Technology="Mobile app(iOS, Android)" c4Description="Видеодомофон — открытие по звонку. Распознавание по биометрии." label="&lt;font style=&quot;font-size: 16px&quot;&gt;&lt;b&gt;%c4Name%&lt;/b&gt;&lt;/font&gt;&lt;div&gt;[%c4Type%: %c4Technology%]&lt;/div&gt;&lt;br&gt;&lt;div&gt;&lt;font style=&quot;font-size: 11px&quot;&gt;&lt;font color=&quot;#E6E6E6&quot;&gt;%c4Description%&lt;/font&gt;&lt;/div&gt;" id="kIscD1tAKLr0vjfSmmDm-1">
          <mxCell style="rounded=1;whiteSpace=wrap;html=1;fontSize=11;labelBackgroundColor=none;fillColor=#23A2D9;fontColor=#ffffff;align=center;arcSize=10;strokeColor=#0E7DAD;metaEdit=1;resizable=0;points=[[0.25,0,0],[0.5,0,0],[0.75,0,0],[1,0.25,0],[1,0.5,0],[1,0.75,0],[0.75,1,0],[0.5,1,0],[0.25,1,0],[0,0.75,0],[0,0.5,0],[0,0.25,0]];" vertex="1" parent="1">
            <mxGeometry x="2464" y="965" width="240" height="120" as="geometry" />
          </mxCell>
        </object>
        <object placeholders="1" c4Name="API Getaway" c4Type="Container" c4Technology="Kong / Krakend" c4Description="API Gateway умного ЖК" label="&lt;font style=&quot;font-size: 16px&quot;&gt;&lt;b&gt;%c4Name%&lt;/b&gt;&lt;/font&gt;&lt;div&gt;[%c4Type%: %c4Technology%]&lt;/div&gt;&lt;br&gt;&lt;div&gt;&lt;font style=&quot;font-size: 11px&quot;&gt;&lt;font color=&quot;#E6E6E6&quot;&gt;%c4Description%&lt;/font&gt;&lt;/div&gt;" id="kIscD1tAKLr0vjfSmmDm-2">
          <mxCell style="rounded=1;whiteSpace=wrap;html=1;fontSize=11;labelBackgroundColor=none;fillColor=#23A2D9;fontColor=#ffffff;align=center;arcSize=10;strokeColor=#0E7DAD;metaEdit=1;resizable=0;points=[[0.25,0,0],[0.5,0,0],[0.75,0,0],[1,0.25,0],[1,0.5,0],[1,0.75,0],[0.75,1,0],[0.5,1,0],[0.25,1,0],[0,0.75,0],[0,0.5,0],[0,0.25,0]];" vertex="1" parent="1">
            <mxGeometry x="2050" y="964" width="240" height="120" as="geometry" />
          </mxCell>
        </object>
      </root>
    </mxGraphModel>
  </diagram>
</mxfile>
